<svg width="11" height="11" viewBox="0 0 11 11" fill="none" xmlns="http://www.w3.org/2000/svg">
<path d="M9.58205 6.07665C9.46229 6.07665 9.33709 6.03855 9.21733 6.01133C8.97481 5.95789 8.73649 5.88694 8.50423 5.79903C8.2517 5.70716 7.97411 5.71193 7.72488 5.81243C7.47565 5.91292 7.2724 6.10204 7.15423 6.34339L7.03447 6.58835C6.50427 6.2934 6.01706 5.92708 5.58649 5.49964C5.15904 5.06906 4.79272 4.58185 4.49778 4.05165L4.72641 3.89923C4.96775 3.78106 5.15687 3.57781 5.25737 3.32858C5.35786 3.07936 5.36263 2.80177 5.27076 2.54923C5.18433 2.31648 5.11341 2.07826 5.05846 1.83613C5.03125 1.71637 5.00947 1.59117 4.99314 1.46597C4.92704 1.08254 4.7262 0.735303 4.42681 0.486804C4.12741 0.238304 3.74912 0.104868 3.36008 0.110524H1.72701C1.49241 0.108322 1.26009 0.156693 1.04586 0.252345C0.831639 0.347998 0.640538 0.488685 0.485572 0.664831C0.330605 0.840977 0.215411 1.04844 0.147831 1.27311C0.0802511 1.49778 0.0618725 1.73437 0.0939462 1.96677C0.383945 4.24728 1.42545 6.36618 3.05396 7.98877C4.68246 9.61136 6.80514 10.6452 9.08669 10.9269H9.29354C9.69496 10.9274 10.0825 10.7802 10.3823 10.5131C10.5545 10.3591 10.692 10.1703 10.7859 9.95917C10.8797 9.74803 10.9277 9.51939 10.9266 9.28835V7.65528C10.9199 7.27717 10.7822 6.91308 10.537 6.62518C10.2918 6.33728 9.95429 6.14341 9.58205 6.07665ZM9.85423 9.34278C9.85413 9.42007 9.83757 9.49646 9.80566 9.56685C9.77375 9.63725 9.72721 9.70004 9.66915 9.75105C9.60832 9.80356 9.5372 9.8428 9.46033 9.86623C9.38347 9.88967 9.30256 9.89679 9.22278 9.88714C7.18411 9.62574 5.29049 8.69309 3.84059 7.23629C2.39069 5.77949 1.46703 3.88145 1.21532 1.84157C1.20665 1.76183 1.21425 1.68117 1.23764 1.60445C1.26103 1.52773 1.29973 1.45654 1.35141 1.3952C1.40242 1.33714 1.46521 1.2906 1.5356 1.25869C1.606 1.22677 1.68238 1.21022 1.75967 1.21012H3.39274C3.51932 1.2073 3.64293 1.2487 3.74229 1.3272C3.84165 1.40569 3.91053 1.51636 3.93709 1.64016C3.95887 1.78895 3.98608 1.93593 4.01874 2.08109C4.08163 2.36804 4.16532 2.65004 4.26915 2.92484L3.50705 3.27867C3.44189 3.30857 3.38328 3.35104 3.33458 3.40365C3.28588 3.45626 3.24805 3.51798 3.22326 3.58525C3.19848 3.65252 3.18723 3.72402 3.19015 3.79566C3.19308 3.86729 3.21013 3.93764 3.24032 4.00266C4.02375 5.68077 5.37269 7.02971 7.0508 7.81315C7.18333 7.86759 7.33198 7.86759 7.46451 7.81315C7.5324 7.78886 7.59479 7.75134 7.64805 7.70274C7.70132 7.65415 7.7444 7.59546 7.77479 7.53008L8.11229 6.76798C8.39371 6.86862 8.68092 6.95224 8.97237 7.01839C9.11754 7.05105 9.26451 7.07827 9.4133 7.10004C9.5371 7.1266 9.64778 7.19549 9.72627 7.29484C9.80476 7.3942 9.84616 7.51781 9.84334 7.6444L9.85423 9.34278Z" fill="#2CB3A5"/>
</svg>
