<svg width="18" height="18" viewBox="0 0 18 18" fill="none" xmlns="http://www.w3.org/2000/svg">
<path d="M9.83366 6.50008H8.16699V4.83342C8.16699 4.6124 8.0792 4.40044 7.92291 4.24416C7.76663 4.08788 7.55467 4.00008 7.33366 4.00008C7.11265 4.00008 6.90068 4.08788 6.7444 4.24416C6.58812 4.40044 6.50033 4.6124 6.50033 4.83342V6.50008H4.83366C4.61265 6.50008 4.40068 6.58788 4.2444 6.74416C4.08812 6.90044 4.00033 7.1124 4.00033 7.33342C4.00033 7.55443 4.08812 7.76639 4.2444 7.92267C4.40068 8.07895 4.61265 8.16675 4.83366 8.16675H6.50033V9.83342C6.50033 10.0544 6.58812 10.2664 6.7444 10.4227C6.90068 10.579 7.11265 10.6667 7.33366 10.6667C7.55467 10.6667 7.76663 10.579 7.92291 10.4227C8.0792 10.2664 8.16699 10.0544 8.16699 9.83342V8.16675H9.83366C10.0547 8.16675 10.2666 8.07895 10.4229 7.92267C10.5792 7.76639 10.667 7.55443 10.667 7.33342C10.667 7.1124 10.5792 6.90044 10.4229 6.74416C10.2666 6.58788 10.0547 6.50008 9.83366 6.50008ZM14.0003 11.5001V3.16675C14.0003 2.50371 13.7369 1.86782 13.2681 1.39898C12.7993 0.93014 12.1634 0.666748 11.5003 0.666748H3.16699C2.50395 0.666748 1.86807 0.93014 1.39923 1.39898C0.930384 1.86782 0.666992 2.50371 0.666992 3.16675V11.5001C0.666992 12.1631 0.930384 12.799 1.39923 13.2678C1.86807 13.7367 2.50395 14.0001 3.16699 14.0001H11.5003C12.1634 14.0001 12.7993 13.7367 13.2681 13.2678C13.7369 12.799 14.0003 12.1631 14.0003 11.5001ZM2.33366 11.5001V3.16675C2.33366 2.94573 2.42146 2.73377 2.57774 2.57749C2.73402 2.42121 2.94598 2.33341 3.16699 2.33341H11.5003C11.7213 2.33341 11.9333 2.42121 12.0896 2.57749C12.2459 2.73377 12.3337 2.94573 12.3337 3.16675V11.5001C12.3337 11.7211 12.2459 11.9331 12.0896 12.0893C11.9333 12.2456 11.7213 12.3334 11.5003 12.3334H3.16699C2.94598 12.3334 2.73402 12.2456 2.57774 12.0893C2.42146 11.9331 2.33366 11.7211 2.33366 11.5001ZM16.5003 4.00008C16.2793 4.00008 16.0674 4.08788 15.9111 4.24416C15.7548 4.40044 15.667 4.6124 15.667 4.83342V13.1667C15.667 13.8298 15.4036 14.4657 14.9348 14.9345C14.4659 15.4034 13.83 15.6667 13.167 15.6667H4.83366C4.61265 15.6667 4.40068 15.7545 4.2444 15.9108C4.08812 16.0671 4.00033 16.2791 4.00033 16.5001C4.00033 16.7211 4.08812 16.9331 4.2444 17.0893C4.40068 17.2456 4.61265 17.3334 4.83366 17.3334H13.167C14.2721 17.3334 15.3319 16.8944 16.1133 16.113C16.8947 15.3316 17.3337 14.2718 17.3337 13.1667V4.83342C17.3337 4.6124 17.2459 4.40044 17.0896 4.24416C16.9333 4.08788 16.7213 4.00008 16.5003 4.00008Z" fill="#2CB3A5"/>
</svg>
