<svg width="19" height="21" viewBox="0 0 19 21" fill="none" xmlns="http://www.w3.org/2000/svg">
<path d="M13.5 18.5H5.5C4.70435 18.5 3.94129 18.1839 3.37868 17.6213C2.81607 17.0587 2.5 16.2956 2.5 15.5V5.5C2.5 5.23478 2.39464 4.98043 2.20711 4.79289C2.01957 4.60536 1.76522 4.5 1.5 4.5C1.23478 4.5 0.98043 4.60536 0.792893 4.79289C0.605357 4.98043 0.5 5.23478 0.5 5.5V15.5C0.5 16.8261 1.02678 18.0979 1.96447 19.0355C2.90215 19.9732 4.17392 20.5 5.5 20.5H13.5C13.7652 20.5 14.0196 20.3946 14.2071 20.2071C14.3946 20.0196 14.5 19.7652 14.5 19.5C14.5 19.2348 14.3946 18.9804 14.2071 18.7929C14.0196 18.6054 13.7652 18.5 13.5 18.5ZM7.5 11.5C7.5 11.7652 7.60536 12.0196 7.79289 12.2071C7.98043 12.3946 8.23478 12.5 8.5 12.5H13.5C13.7652 12.5 14.0196 12.3946 14.2071 12.2071C14.3946 12.0196 14.5 11.7652 14.5 11.5C14.5 11.2348 14.3946 10.9804 14.2071 10.7929C14.0196 10.6054 13.7652 10.5 13.5 10.5H8.5C8.23478 10.5 7.98043 10.6054 7.79289 10.7929C7.60536 10.9804 7.5 11.2348 7.5 11.5ZM18.5 7.44C18.4896 7.34813 18.4695 7.25763 18.44 7.17V7.08C18.3919 6.97718 18.3278 6.88267 18.25 6.8L12.25 0.8C12.1673 0.722216 12.0728 0.658081 11.97 0.61C11.9402 0.60576 11.9099 0.60576 11.88 0.61C11.7784 0.551741 11.6662 0.514344 11.55 0.5H7.5C6.70435 0.5 5.94129 0.816071 5.37868 1.37868C4.81607 1.94129 4.5 2.70435 4.5 3.5V13.5C4.5 14.2956 4.81607 15.0587 5.37868 15.6213C5.94129 16.1839 6.70435 16.5 7.5 16.5H15.5C16.2956 16.5 17.0587 16.1839 17.6213 15.6213C18.1839 15.0587 18.5 14.2956 18.5 13.5V7.5C18.5 7.5 18.5 7.5 18.5 7.44ZM12.5 3.91L15.09 6.5H13.5C13.2348 6.5 12.9804 6.39464 12.7929 6.20711C12.6054 6.01957 12.5 5.76522 12.5 5.5V3.91ZM16.5 13.5C16.5 13.7652 16.3946 14.0196 16.2071 14.2071C16.0196 14.3946 15.7652 14.5 15.5 14.5H7.5C7.23478 14.5 6.98043 14.3946 6.79289 14.2071C6.60536 14.0196 6.5 13.7652 6.5 13.5V3.5C6.5 3.23478 6.60536 2.98043 6.79289 2.79289C6.98043 2.60536 7.23478 2.5 7.5 2.5H10.5V5.5C10.5027 5.84114 10.5636 6.17933 10.68 6.5H8.5C8.23478 6.5 7.98043 6.60536 7.79289 6.79289C7.60536 6.98043 7.5 7.23478 7.5 7.5C7.5 7.76522 7.60536 8.01957 7.79289 8.20711C7.98043 8.39464 8.23478 8.5 8.5 8.5H16.5V13.5Z" fill="#2C3782"/>
</svg>
