<svg width="16" height="16" viewBox="0 0 16 16" fill="none" xmlns="http://www.w3.org/2000/svg">
<path d="M13.3332 5.96001C13.3262 5.89877 13.3128 5.83843 13.2932 5.78001V5.72001C13.2611 5.65146 13.2184 5.58845 13.1665 5.53334L9.1665 1.53334C9.11139 1.48149 9.04838 1.43873 8.97984 1.40668H8.91317C8.84835 1.37201 8.77868 1.34729 8.7065 1.33334H4.6665C4.13607 1.33334 3.62736 1.54406 3.25229 1.91913C2.87722 2.2942 2.6665 2.80291 2.6665 3.33334V12.6667C2.6665 13.1971 2.87722 13.7058 3.25229 14.0809C3.62736 14.456 4.13607 14.6667 4.6665 14.6667H11.3332C11.8636 14.6667 12.3723 14.456 12.7474 14.0809C13.1225 13.7058 13.3332 13.1971 13.3332 12.6667V6.00001C13.3332 6.00001 13.3332 6.00001 13.3332 5.96001ZM9.33317 3.60668L11.0598 5.33334H9.99984C9.82303 5.33334 9.65346 5.26311 9.52843 5.13808C9.40341 5.01306 9.33317 4.84349 9.33317 4.66668V3.60668ZM11.9998 12.6667C11.9998 12.8435 11.9296 13.0131 11.8046 13.1381C11.6796 13.2631 11.51 13.3333 11.3332 13.3333H4.6665C4.48969 13.3333 4.32012 13.2631 4.1951 13.1381C4.07008 13.0131 3.99984 12.8435 3.99984 12.6667V3.33334C3.99984 3.15653 4.07008 2.98696 4.1951 2.86194C4.32012 2.73691 4.48969 2.66668 4.6665 2.66668H7.99984V4.66668C7.99984 5.19711 8.21055 5.70582 8.58562 6.08089C8.9607 6.45596 9.4694 6.66668 9.99984 6.66668H11.9998V12.6667ZM8.85984 9.52668L8.6665 9.72668V8.00001C8.6665 7.8232 8.59627 7.65363 8.47124 7.52861C8.34622 7.40358 8.17665 7.33334 7.99984 7.33334C7.82303 7.33334 7.65346 7.40358 7.52843 7.52861C7.40341 7.65363 7.33317 7.8232 7.33317 8.00001V9.72668L7.13984 9.52668C7.0143 9.40114 6.84404 9.33062 6.6665 9.33062C6.48897 9.33062 6.31871 9.40114 6.19317 9.52668C6.06763 9.65221 5.99711 9.82248 5.99711 10C5.99711 10.1775 6.06763 10.3478 6.19317 10.4733L7.5265 11.8067C7.58991 11.8674 7.66467 11.9149 7.7465 11.9467C7.8263 11.9819 7.91259 12.0002 7.99984 12.0002C8.08708 12.0002 8.17337 11.9819 8.25317 11.9467C8.335 11.9149 8.40977 11.8674 8.47317 11.8067L9.8065 10.4733C9.93204 10.3478 10.0026 10.1775 10.0026 10C10.0026 9.82248 9.93204 9.65221 9.8065 9.52668C9.68097 9.40114 9.5107 9.33062 9.33317 9.33062C9.15564 9.33062 8.98537 9.40114 8.85984 9.52668Z" fill="#999999"/>
</svg>
