<svg width="320" height="85" viewBox="0 0 320 85" fill="none" xmlns="http://www.w3.org/2000/svg">
<path d="M1.49907 58.9851C0.666256 58.8927 0 58.4306 0 57.9223C0 47.6405 0 37.3588 0 27.077C0 26.5687 0.666256 26.0835 1.49907 26.0142C2.33189 25.9218 2.99815 26.2915 2.99815 26.7998C2.99815 37.2664 2.99815 47.7329 2.99815 58.1995C3.03979 58.7309 2.37354 59.0775 1.49907 58.9851Z" fill="#6576FF"/>
<path d="M9 71.9683C8.45946 71.8314 8 71.3066 8 70.7818C8 51.9348 8 33.0879 8 14.2181C8 13.6933 8.43243 13.1685 9 13.0316C9.54054 12.8947 10 13.2142 10 13.7618C10 32.9282 10 52.0946 10 71.261C10 71.7858 9.54054 72.1052 9 71.9683Z" fill="#6576FF"/>
<path d="M16.5 50.9968C15.6892 50.9523 15 50.5074 15 49.9736C15 44.9912 15 40.0088 15 35.0264C15 34.4926 15.6486 34.0255 16.5 34.0032C17.3108 33.9587 18 34.3813 18 34.9152C18 39.9643 18 45.0357 18 50.0848C17.9595 50.6187 17.3108 51.0413 16.5 50.9968Z" fill="#6576FF"/>
<path d="M24.5 51.9991C23.6892 51.9534 23 51.4727 23 50.9006C23 45.2933 23 39.6861 23 34.1017C23 33.5296 23.6486 33.0489 24.5 33.0032C25.3108 32.9574 26 33.4151 26 33.9873C26 39.6632 26 45.3391 26 51.015C25.9595 51.5872 25.3108 52.022 24.5 51.9991Z" fill="#6576FF"/>
<path d="M31.5 56.9967C30.6892 56.9507 30 56.4223 30 55.825C30 46.934 30 38.066 30 29.175C30 28.5777 30.6486 28.0493 31.5 28.0033C32.3108 27.9574 33 28.3939 33 29.0142C33 37.9971 33 47.0029 33 55.9858C33 56.6061 32.3108 57.0426 31.5 56.9967Z" fill="#6576FF"/>
<path d="M39.5 59.9968C38.6892 59.9511 38 59.4018 38 58.7839C38 47.9356 38 37.0644 38 26.2161C38 25.5982 38.6892 25.0718 39.5 25.0032C40.3108 24.9574 41 25.4151 41 26.0331C41 37.0186 41 47.9814 41 58.9669C41 59.5849 40.3108 60.0426 39.5 59.9968Z" fill="#6576FF"/>
<path d="M47.5 52.9972C46.6892 52.9752 46 52.4464 46 51.8516C46 45.6165 46 39.3815 46 33.1464C46 32.5516 46.6892 32.0228 47.5 32.0008C48.3108 31.9787 49 32.4414 49 33.0583C49 39.3594 49 45.6606 49 51.9397C49 52.5566 48.3513 53.0413 47.5 52.9972Z" fill="#6576FF"/>
<path d="M55 65.9935C54.4595 65.9249 54 65.353 54 64.7124C54 49.9118 54 35.0882 54 20.2876C54 19.647 54.4595 19.0752 55 19.0065C55.5405 18.9379 56 19.4183 56 20.0817C56 35.0196 56 49.9804 56 64.9183C56 65.5817 55.5676 66.0621 55 65.9935Z" fill="#6576FF"/>
<path d="M62.5 66.9936C61.6486 66.9471 61 66.3417 61 65.6664C61 50.2288 61 34.7679 61 19.3303C61 18.655 61.6892 18.0729 62.5 18.0031C63.3514 17.9565 64 18.4455 64 19.144C64 34.7213 64 50.2986 64 65.876C64 66.5512 63.3514 67.0635 62.5 66.9936Z" fill="#6576FF"/>
<path d="M70.5 53.9993C69.6486 53.9758 69 53.3903 69 52.7112C69 45.8959 69 39.1041 69 32.2888C69 31.5862 69.6892 31.0242 70.5 31.0007C71.3514 30.9773 72 31.516 72 32.2186C72 39.0807 72 45.9428 72 52.7814C72 53.484 71.3108 54.0227 70.5 53.9993Z" fill="#6576FF"/>
<path d="M78.5 52.9993C77.6486 52.9753 77 52.3746 77 51.6538C77 45.5513 77 39.4487 77 33.3462C77 32.6254 77.6892 32.0248 78.5 32.0007C79.3514 31.9767 80 32.5533 80 33.2981C80 39.4487 80 45.5993 80 51.7259C80 52.4467 79.3108 53.0233 78.5 52.9993Z" fill="#6576FF"/>
<path d="M86 54.9993C85.4324 54.9767 85 54.3885 85 53.7098C85 46.2442 85 38.7559 85 31.2902C85 30.5889 85.4595 30.0233 86 30.0007C86.5676 29.9781 87 30.521 87 31.2223C87 38.7332 87 46.2668 87 53.7777C87 54.4564 86.5405 55.022 86 54.9993Z" fill="#6576FF"/>
<path d="M93.4992 53.9994C92.6483 53.9772 92 53.4 92 52.7118C92 45.8965 92 39.1035 92 32.2882C92 31.6 92.6888 31.0228 93.4992 31.0006C94.3095 30.9784 94.9983 31.5334 94.9983 32.2216C94.9983 39.0591 94.9983 45.8965 94.9983 52.734C95.0388 53.4666 94.35 54.0216 93.4992 53.9994Z" fill="#6576FF"/>
<path d="M101.5 52.9993C100.649 52.9764 100 52.3797 100 51.6683C100 45.5637 100 39.4362 100 33.3317C100 32.5973 100.689 32.0006 101.5 32.0006C102.351 31.9777 103 32.5744 103 33.3088C103 39.4592 103 45.5867 103 51.7371C103 52.4485 102.351 53.0223 101.5 52.9993Z" fill="#6576FF"/>
<path d="M109.5 52C108.649 52 108 51.3871 108 50.6607C108 45.2127 108 39.7873 108 34.3393C108 33.6129 108.689 33.0227 109.5 33C110.351 33 111 33.5675 111 34.2939C111 39.7646 111 45.2127 111 50.6834C111 51.4325 110.311 52 109.5 52Z" fill="#6576FF"/>
<path d="M117 78.9974C116.432 78.9743 116 78.3281 116 77.5896C116 54.1882 116 30.8099 116 7.40845C116 6.66994 116.459 6.02375 117 6.00067C117.568 5.97759 118 6.55455 118 7.29306C118 30.7637 118 54.2344 118 77.705C118 78.4666 117.568 79.0436 117 78.9974Z" fill="#6576FF"/>
<path d="M124.499 68.9994C123.648 68.9765 123 68.3594 123 67.6053C123 50.876 123 34.124 123 17.3947C123 16.6406 123.689 16.0235 124.499 16.0006C125.35 15.9778 125.998 16.572 125.998 17.3262C125.998 34.1011 125.998 50.8989 125.998 67.6738C126.039 68.428 125.35 69.0222 124.499 68.9994Z" fill="#6576FF"/>
<path d="M132.5 58C131.671 58 131 57.3864 131 56.6364C131 47.2045 131 37.7727 131 28.3636C131 27.6136 131.671 27 132.5 27C133.329 27 134 27.5909 134 28.3409C134 37.7955 134 47.2273 134 56.6818C134 57.4091 133.329 58 132.5 58Z" fill="#6576FF"/>
<path d="M140.5 52C139.671 52 139 51.3706 139 50.6012C139 45.1926 139 39.8074 139 34.3988C139 33.6294 139.671 33 140.5 33C141.329 33 142 33.6294 142 34.3988C142 39.8074 142 45.2159 142 50.6245C141.961 51.3939 141.329 52 140.5 52Z" fill="#6576FF"/>
<path d="M148.5 57C147.671 57 147 56.3665 147 55.5922C147 46.8641 147 38.1359 147 29.4078C147 28.6335 147.671 28 148.5 28C149.329 28 150 28.6335 150 29.4078C150 38.1359 150 46.8641 150 55.6157C150 56.3665 149.329 57 148.5 57Z" fill="#6576FF"/>
<path d="M156.5 57C155.671 57 155 56.3902 155 55.6449C155 46.8816 155 38.1184 155 29.3551C155 28.6098 155.671 28 156.5 28C157.329 28 158 28.6098 158 29.3551C158 38.1184 158 46.8816 158 55.6674C157.961 56.3902 157.329 57 156.5 57Z" fill="#6576FF"/>
<path d="M163.5 67C162.671 67 162 66.3835 162 65.63C162 50.2176 162 34.7824 162 19.37C162 18.6165 162.671 18 163.5 18C164.329 18 165 18.6165 165 19.37C165 34.7824 165 50.2176 165 65.63C164.961 66.3835 164.289 67 163.5 67Z" fill="#6576FF"/>
<path d="M171.5 85C170.671 85 170 84.4027 170 83.6446C170 56.2151 170 28.7855 170 1.35601C170 0.597911 170.671 -0.0223546 171.5 0.000618252C172.329 0.000618252 173 0.643857 173 1.40196C173 28.8085 173 56.2151 173 83.6216C173 84.3568 172.329 85 171.5 85Z" fill="#6576FF"/>
<path d="M179.5 55C178.671 55 178 54.3798 178 53.5687C178 46.1975 178 38.8025 178 31.4313C178 30.6441 178.671 30 179.5 30C180.329 30 181 30.6441 181 31.4313C181 38.8025 181 46.1737 181 53.521C180.961 54.3559 180.289 55 179.5 55Z" fill="#6576FF"/>
<path d="M187.5 55C186.671 55 186 54.4026 186 53.6443C186 46.2224 186 38.7776 186 31.3557C186 30.5974 186.671 30 187.5 30C188.329 30 189 30.6204 189 31.3787C189 38.8006 189 46.1994 189 53.6213C189 54.3566 188.329 54.977 187.5 55Z" fill="#6576FF"/>
<path d="M195.499 60.9993C194.648 61.0227 194 60.4158 194 59.6455C194 48.2074 194 36.7926 194 25.3545C194 24.5842 194.689 23.9773 195.499 24.0007C196.35 24.024 196.998 24.6543 196.998 25.4012C196.998 36.7926 196.998 48.2074 196.998 59.5988C197.039 60.3691 196.35 60.9993 195.499 60.9993Z" fill="#6576FF"/>
<path d="M203 63.9993C202.432 64.0227 202 63.4164 202 62.6702C202 49.2156 202 35.7611 202 22.3298C202 21.5836 202.459 20.9773 203 21.0007C203.568 21.024 204 21.6536 204 22.3997C204 35.8077 204 49.2156 204 62.6236C204 63.3464 203.541 63.976 203 63.9993Z" fill="#6576FF"/>
<path d="M210.5 54.9994C209.649 55.022 209 54.4343 209 53.711C209 46.2295 209 38.7479 209 31.289C209 30.5657 209.689 29.978 210.5 30.0006C211.351 30.0232 212 30.6109 212 31.3342C212 38.7705 212 46.2295 212 53.6658C212 54.3891 211.311 54.9768 210.5 54.9994Z" fill="#6576FF"/>
<path d="M218.5 68.9993C217.649 69.0224 217 68.4682 217 67.7292C217 50.9174 217 34.0826 217 17.2708C217 16.5318 217.689 15.9776 218.5 16.0007C219.351 16.0238 220 16.6473 220 17.3863C220 34.1288 220 50.8712 220 67.6137C220 68.3527 219.311 68.9762 218.5 68.9993Z" fill="#6576FF"/>
<path d="M226.499 68.9973C225.648 69.0441 225 68.4825 225 67.7338C225 50.9112 225 34.0887 225 17.2661C225 16.5408 225.689 15.9558 226.499 16.0026C227.35 16.0494 227.998 16.6577 227.998 17.4065C227.998 34.1355 227.998 50.8644 227.998 67.6168C228.039 68.3422 227.35 68.9505 226.499 68.9973Z" fill="#6576FF"/>
<path d="M234.5 53.9993C233.649 54.0219 233 53.4577 233 52.7806C233 45.9193 233 39.0807 233 32.2195C233 31.5198 233.689 30.9781 234.5 31.0007C235.351 31.0233 236 31.6101 236 32.2872C236 39.1033 236 45.8968 236 52.7129C236 53.4125 235.311 53.9768 234.5 53.9993Z" fill="#6576FF"/>
<path d="M241.5 52.9993C240.649 53.0233 240 52.4473 240 51.7033C240 45.5595 240 39.4157 240 33.296C240 32.576 240.689 32 241.5 32C242.351 32.024 243 32.624 243 33.344C243 39.4397 243 45.5355 243 51.6313C243 52.3753 242.311 52.9753 241.5 52.9993Z" fill="#6576FF"/>
<path d="M249.5 54.9993C248.649 55.0227 248 54.4833 248 53.7798C248 46.2521 248 38.7479 248 31.2202C248 30.5167 248.689 29.9773 249.5 30.0007C250.351 30.0242 251 30.6105 251 31.314C251 38.7713 251 46.2521 251 53.7095C251 54.3895 250.311 54.9524 249.5 54.9993Z" fill="#6576FF"/>
<path d="M257.5 53.9992C256.649 54.0232 256 53.4733 256 52.78C256 45.9187 256 39.0813 256 32.22C256 31.5267 256.689 30.9768 257.5 31.0008C258.351 31.0247 259 31.6223 259 32.2917C259 39.0813 259 45.8948 259 52.6844C259 53.4016 258.351 53.9753 257.5 53.9992Z" fill="#6576FF"/>
<path d="M265 51.9992C264.459 52.0224 264 51.5127 264 50.8408C264 45.2803 264 39.7197 264 34.1592C264 33.4873 264.459 32.9776 265 33.0008C265.541 33.0239 266 33.58 266 34.2287C266 39.7429 266 45.2571 266 50.7481C266 51.42 265.568 51.9761 265 51.9992Z" fill="#6576FF"/>
<path d="M272.5 50.9992C271.689 51.0228 271 50.5048 271 49.8456C271 44.9485 271 40.0515 271 35.1544C271 34.4952 271.689 33.9772 272.5 34.0008C273.311 34.0243 274 34.5658 274 35.225C274 40.075 274 44.9014 274 49.7514C274 50.4342 273.351 50.9757 272.5 50.9992Z" fill="#6576FF"/>
<path d="M280.5 72.9876C279.689 73.0807 279 72.6387 279 72.0105C279 52.3291 279 32.6476 279 12.9895C279 12.3613 279.689 11.9193 280.5 12.0124C281.311 12.1054 282 12.687 282 13.3152C282 32.764 282 52.236 282 71.6848C282 72.313 281.351 72.8946 280.5 72.9876Z" fill="#6576FF"/>
<path d="M288.5 63.9927C287.689 64.0626 287 63.62 287 63.0142C287 49.3381 287 35.6619 287 21.9858C287 21.38 287.649 20.9374 288.5 21.0073C289.311 21.0772 290 21.6363 290 22.2421C290 35.7551 290 49.2682 290 62.7812C290 63.3637 289.351 63.9228 288.5 63.9927Z" fill="#6576FF"/>
<path d="M295.5 53.9968C294.689 54.041 294 53.6213 294 53.0691C294 46.023 294 38.977 294 31.9309C294 31.3787 294.649 30.959 295.5 31.0032C296.311 31.0474 297 31.5333 297 32.0855C297 39.0432 297 45.9789 297 52.9366C297 53.4667 296.311 53.9526 295.5 53.9968Z" fill="#6576FF"/>
<path d="M303.5 48.9991C302.689 49.0209 302 48.6284 302 48.0831C302 44.3538 302 40.6462 302 36.9168C302 36.3934 302.649 35.979 303.5 36.0008C304.311 36.0226 305 36.4806 305 37.004C305 40.668 305 44.332 305 47.9959C304.959 48.5411 304.311 48.9773 303.5 48.9991Z" fill="#6576FF"/>
<path d="M311 51.9965C310.459 52.0405 310 51.6664 310 51.1382C310 45.372 310 39.6058 310 33.8617C310 33.3555 310.432 32.9593 311 33.0033C311.541 33.0474 312 33.4875 312 33.9937C312 39.6719 312 45.328 312 51.0061C312 51.5123 311.541 51.9525 311 51.9965Z" fill="#6576FF"/>
<path d="M318.5 51.9963C317.667 52.0407 317 51.6853 317 51.1743C317 45.3988 317 39.601 317 33.8255C317 33.3368 317.667 32.9591 318.5 33.0036C319.333 33.048 320 33.4923 320 33.981C320 39.6677 320 45.3321 320 51.0189C320 51.5076 319.333 51.9296 318.5 51.9963Z" fill="#6576FF"/>
</svg>
