<svg width="18" height="14" viewBox="0 0 18 14" fill="none" xmlns="http://www.w3.org/2000/svg">
<path d="M9.35817 0.416653C9.22284 0.358104 9.0744 0.336513 8.928 0.354081C8.78159 0.371649 8.64247 0.427748 8.52484 0.516653L4.5415 3.66665H1.49984C1.27882 3.66665 1.06686 3.75445 0.910582 3.91073C0.754301 4.06701 0.666504 4.27897 0.666504 4.49999V9.49999C0.666504 9.721 0.754301 9.93296 0.910582 10.0892C1.06686 10.2455 1.27882 10.3333 1.49984 10.3333H4.5415L8.48317 13.4833C8.62979 13.601 8.81187 13.6656 8.99984 13.6667C9.12431 13.6687 9.24738 13.6401 9.35817 13.5833C9.49998 13.5158 9.61981 13.4095 9.70386 13.2768C9.7879 13.1441 9.83273 12.9904 9.83317 12.8333V1.16665C9.83273 1.00958 9.7879 0.855833 9.70386 0.723135C9.61981 0.590437 9.49998 0.484193 9.35817 0.416653V0.416653ZM8.1665 11.1L5.34984 8.84999C5.20322 8.73235 5.02114 8.66774 4.83317 8.66665H2.33317V5.33332H4.83317C5.02114 5.33223 5.20322 5.26762 5.34984 5.14999L8.1665 2.89999V11.1ZM15.3832 2.28332C15.2263 2.1264 15.0134 2.03824 14.7915 2.03824C14.5696 2.03824 14.3568 2.1264 14.1998 2.28332C14.0429 2.44024 13.9548 2.65307 13.9548 2.87499C13.9548 3.0969 14.0429 3.30973 14.1998 3.46665C14.6905 3.9566 15.074 4.54326 15.3258 5.18936C15.5776 5.83546 15.6922 6.52687 15.6624 7.21966C15.6327 7.91246 15.4591 8.59148 15.1528 9.21359C14.8465 9.83569 14.4141 10.3873 13.8832 10.8333C13.7542 10.9436 13.662 11.0906 13.6188 11.2546C13.5757 11.4187 13.5836 11.592 13.6416 11.7515C13.6995 11.9109 13.8048 12.0489 13.9433 12.1469C14.0818 12.2449 14.2469 12.2983 14.4165 12.3C14.6112 12.3004 14.7999 12.2326 14.9498 12.1083C15.659 11.5144 16.2367 10.7794 16.6464 9.9501C17.0561 9.12079 17.2887 8.2153 17.3294 7.29122C17.3702 6.36713 17.2182 5.44468 16.8831 4.58252C16.5481 3.72036 16.0372 2.93736 15.3832 2.28332V2.28332ZM13.0248 4.64165C12.9471 4.56395 12.8549 4.50232 12.7534 4.46027C12.6519 4.41822 12.5431 4.39658 12.4332 4.39658C12.3233 4.39658 12.2145 4.41822 12.113 4.46027C12.0114 4.50232 11.9192 4.56395 11.8415 4.64165C11.7638 4.71935 11.7022 4.81159 11.6601 4.91311C11.6181 5.01463 11.5964 5.12344 11.5964 5.23332C11.5964 5.3432 11.6181 5.45201 11.6601 5.55353C11.7022 5.65505 11.7638 5.74729 11.8415 5.82499C12.1545 6.13611 12.3313 6.55867 12.3332 6.99999C12.3334 7.24278 12.2805 7.48268 12.1783 7.70291C12.0761 7.92314 11.927 8.11839 11.7415 8.27499C11.6571 8.34494 11.5874 8.43086 11.5362 8.52782C11.4851 8.62477 11.4536 8.73086 11.4436 8.84001C11.4335 8.94916 11.4451 9.05922 11.4776 9.16389C11.5101 9.26856 11.563 9.36578 11.6332 9.44999C11.7037 9.53376 11.7901 9.60281 11.8873 9.65318C11.9846 9.70356 12.0908 9.73426 12.1999 9.74355C12.3091 9.75284 12.419 9.74052 12.5233 9.70731C12.6277 9.6741 12.7245 9.62064 12.8082 9.54999C13.1808 9.23758 13.4805 8.84744 13.6864 8.40694C13.8922 7.96643 13.9992 7.48622 13.9998 6.99999C13.9951 6.11674 13.6452 5.27036 13.0248 4.64165V4.64165Z" fill="white"/>
</svg>
