<svg width="25" height="25" viewBox="0 0 25 25" fill="none" xmlns="http://www.w3.org/2000/svg">
<path d="M16.4996 7.5C16.8952 7.5 17.2819 7.3827 17.6108 7.16294C17.9397 6.94318 18.196 6.63082 18.3474 6.26537C18.4988 5.89992 18.5384 5.49778 18.4612 5.10982C18.384 4.72186 18.1935 4.36549 17.9138 4.08579C17.6341 3.80608 17.2778 3.6156 16.8898 3.53843C16.5018 3.46126 16.0997 3.50087 15.7343 3.65224C15.3688 3.80362 15.0565 4.05996 14.8367 4.38886C14.6169 4.71776 14.4996 5.10444 14.4996 5.5C14.4996 6.03043 14.7103 6.53914 15.0854 6.91421C15.4605 7.28929 15.9692 7.5 16.4996 7.5ZM13.1996 18.9C12.7988 19.4248 12.2743 19.8422 11.6729 20.115C11.0715 20.3878 10.4119 20.5074 9.75305 20.4632C9.09416 20.419 8.45647 20.2124 7.89687 19.8618C7.33728 19.5111 6.8732 19.0274 6.54605 18.4538C6.2189 17.8802 6.03886 17.2345 6.022 16.5743C6.00513 15.9142 6.15197 15.2601 6.44941 14.6705C6.74684 14.0809 7.18562 13.5742 7.72658 13.1954C8.26754 12.8167 8.89386 12.5778 9.54963 12.5C9.81484 12.4708 10.0576 12.3375 10.2245 12.1293C10.3914 11.9212 10.4688 11.6552 10.4396 11.39C10.4105 11.1248 10.2771 10.882 10.069 10.7151C9.86079 10.5482 9.59484 10.4708 9.32963 10.5C7.73833 10.5888 6.2475 11.3062 5.18511 12.4942C4.12271 13.6823 3.57578 15.2437 3.66463 16.835C3.75347 18.4263 4.47082 19.9171 5.65887 20.9795C6.84691 22.0419 8.40833 22.5888 9.99963 22.5C10.9311 22.5 11.8498 22.2831 12.6829 21.8666C13.516 21.45 14.2407 20.8452 14.7996 20.1C14.9588 19.8878 15.0271 19.6211 14.9896 19.3586C14.9521 19.096 14.8118 18.8591 14.5996 18.7C14.3875 18.5409 14.1208 18.4725 13.8582 18.5101C13.5957 18.5476 13.3588 18.6878 13.1996 18.9ZM19.9996 20.5H18.9996V15.5C18.9996 15.2348 18.8943 14.9804 18.7067 14.7929C18.5192 14.6054 18.2648 14.5 17.9996 14.5H13.4296L15.1196 9.84V9.53C15.1245 9.4701 15.1245 9.4099 15.1196 9.35C15.1253 9.2868 15.1253 9.22321 15.1196 9.16C15.0936 9.10134 15.0635 9.04454 15.0296 8.99C14.9996 8.93545 14.9626 8.88503 14.9196 8.84C14.8767 8.78913 14.8261 8.74527 14.7696 8.71C14.7696 8.71 14.7696 8.65 14.6896 8.63L10.2096 6.05H10.0896C10.0283 6.02408 9.9647 6.00399 9.89963 5.99H9.49963C9.43015 6.00436 9.36289 6.0279 9.29963 6.06H9.18963L6.49963 7.63C6.30844 7.73831 6.15826 7.90657 6.07227 8.10877C5.98629 8.31098 5.9693 8.53588 6.02393 8.74871C6.07856 8.96154 6.20177 9.15045 6.37451 9.28625C6.54726 9.42204 6.75992 9.49717 6.97963 9.5C7.16156 9.50479 7.34135 9.45985 7.49963 9.37L9.72963 8.07L12.9696 9.95L11.0796 15.16C11.0748 15.2132 11.0748 15.2668 11.0796 15.32C11.0703 15.3796 11.0703 15.4404 11.0796 15.5C11.0981 15.6283 11.1248 15.7552 11.1596 15.88L11.2696 16.03C11.2969 16.0892 11.3341 16.1434 11.3796 16.19C11.4224 16.2257 11.4694 16.2559 11.5196 16.28C11.5791 16.3258 11.6427 16.3659 11.7096 16.4C11.8186 16.4396 11.9337 16.4599 12.0496 16.46H17.0496V21.46C17.0496 21.7252 17.155 21.9796 17.3425 22.1671C17.5301 22.3546 17.7844 22.46 18.0496 22.46H20.0496C20.3148 22.46 20.5692 22.3546 20.7567 22.1671C20.9443 21.9796 21.0496 21.7252 21.0496 21.46C21.0496 21.1948 20.9443 20.9404 20.7567 20.7529C20.5692 20.5654 20.3148 20.46 20.0496 20.46L19.9996 20.5Z" fill="#2C3782"/>
</svg>
