<svg width="20" height="21" viewBox="0 0 20 21" fill="none" xmlns="http://www.w3.org/2000/svg">
<circle cx="9.5" cy="10" r="9.5" fill="#6576FF"/>
<path d="M14.0794 9.31571H10.132V5.36834C10.132 5.19386 10.0627 5.02652 9.9393 4.90314C9.81592 4.77976 9.64858 4.71045 9.4741 4.71045C9.29961 4.71045 9.13227 4.77976 9.00889 4.90314C8.88551 5.02652 8.8162 5.19386 8.8162 5.36834V9.31571H4.86883C4.69435 9.31571 4.52701 9.38503 4.40363 9.50841C4.28025 9.63178 4.21094 9.79912 4.21094 9.97361C4.21094 10.1481 4.28025 10.3154 4.40363 10.4388C4.52701 10.5622 4.69435 10.6315 4.86883 10.6315H8.8162V14.5789C8.8162 14.7534 8.88551 14.9207 9.00889 15.0441C9.13227 15.1675 9.29961 15.2368 9.4741 15.2368C9.64858 15.2368 9.81592 15.1675 9.9393 15.0441C10.0627 14.9207 10.132 14.7534 10.132 14.5789V10.6315H14.0794C14.2538 10.6315 14.4212 10.5622 14.5446 10.4388C14.6679 10.3154 14.7373 10.1481 14.7373 9.97361C14.7373 9.79912 14.6679 9.63178 14.5446 9.50841C14.4212 9.38503 14.2538 9.31571 14.0794 9.31571Z" fill="white"/>
</svg>
