<svg width="17" height="17" viewBox="0 0 17 17" fill="none" xmlns="http://www.w3.org/2000/svg">
<path d="M14.6998 9.33331C14.5165 9.33331 14.3248 9.27497 14.1415 9.23331C13.7702 9.15149 13.4054 9.04287 13.0498 8.90831C12.6632 8.76766 12.2383 8.77497 11.8568 8.92881C11.4752 9.08265 11.1641 9.37217 10.9832 9.74164L10.7998 10.1166C9.98818 9.66512 9.24233 9.10433 8.58317 8.44997C7.92881 7.79082 7.36803 7.04497 6.91651 6.2333L7.26651 5.99997C7.63598 5.81907 7.92549 5.50791 8.07933 5.12638C8.23318 4.74485 8.24048 4.3199 8.09984 3.9333C7.96753 3.57699 7.85895 3.2123 7.77484 2.84164C7.73317 2.6583 7.69984 2.46664 7.67484 2.27497C7.57364 1.68799 7.26619 1.15642 6.80786 0.776004C6.34952 0.395585 5.77042 0.191312 5.17484 0.199971H2.67484C2.3157 0.196599 1.96005 0.270649 1.6321 0.41708C1.30415 0.563511 1.0116 0.778885 0.774365 1.04854C0.537132 1.31819 0.360785 1.6358 0.25733 1.97973C0.153874 2.32367 0.125739 2.68585 0.17484 3.04164C0.618788 6.53279 2.2132 9.77654 4.70622 12.2605C7.19924 14.7445 10.4488 16.3271 13.9415 16.7583H14.2582C14.8727 16.7592 15.466 16.5337 15.9248 16.125C16.1885 15.8892 16.3991 15.6001 16.5427 15.2769C16.6864 14.9537 16.7598 14.6037 16.7582 14.25V11.75C16.748 11.1711 16.5372 10.6138 16.1618 10.173C15.7864 9.73229 15.2697 9.43549 14.6998 9.33331ZM15.1165 14.3333C15.1164 14.4516 15.091 14.5686 15.0422 14.6763C14.9933 14.7841 14.9221 14.8802 14.8332 14.9583C14.7403 15.0391 14.6315 15.0995 14.5137 15.1354C14.396 15.1713 14.272 15.1819 14.1498 15.1666C11.0289 14.7665 8.13004 13.3387 5.91044 11.1085C3.69084 8.87838 2.27685 5.97275 1.89151 2.84997C1.87824 2.7279 1.88987 2.60441 1.92567 2.48696C1.96148 2.36951 2.02073 2.26054 2.09984 2.16664C2.17793 2.07775 2.27406 2.00651 2.38182 1.95765C2.48959 1.9088 2.60652 1.88345 2.72484 1.8833H5.22484C5.41863 1.87899 5.60786 1.94237 5.75996 2.06253C5.91206 2.18269 6.01751 2.35211 6.05817 2.54164C6.09151 2.76942 6.13317 2.99442 6.18317 3.21664C6.27944 3.65593 6.40756 4.08762 6.56651 4.50831L5.39984 5.04997C5.30009 5.09574 5.21036 5.16076 5.1358 5.2413C5.06125 5.32184 5.00334 5.41632 4.9654 5.5193C4.92746 5.62228 4.91023 5.73175 4.91471 5.84141C4.91919 5.95107 4.94529 6.05876 4.99151 6.1583C6.19084 8.72727 8.25588 10.7923 10.8248 11.9916C11.0277 12.075 11.2553 12.075 11.4582 11.9916C11.5621 11.9545 11.6576 11.897 11.7391 11.8226C11.8207 11.7482 11.8866 11.6584 11.9332 11.5583L12.4498 10.3916C12.8806 10.5457 13.3203 10.6737 13.7665 10.775C13.9887 10.825 14.2137 10.8666 14.4415 10.9C14.631 10.9406 14.8005 11.0461 14.9206 11.1982C15.0408 11.3503 15.1042 11.5395 15.0998 11.7333L15.1165 14.3333Z" fill="white"/>
</svg>
