<svg width="18" height="18" viewBox="0 0 18 18" fill="none" xmlns="http://www.w3.org/2000/svg">
<path d="M11.9582 6.49988C12.0619 6.53939 12.1722 6.55917 12.2832 6.55821H15.6165C15.8375 6.55821 16.0495 6.47042 16.2058 6.31414C16.362 6.15786 16.4498 5.94589 16.4498 5.72488C16.4498 5.50387 16.362 5.2919 16.2058 5.13562C16.0495 4.97934 15.8375 4.89155 15.6165 4.89155H14.2915L17.0332 2.14988C17.1204 2.07517 17.1913 1.98324 17.2413 1.87986C17.2913 1.77647 17.3194 1.66386 17.3238 1.54909C17.3283 1.43433 17.3089 1.31988 17.267 1.21294C17.2251 1.10601 17.1616 1.00888 17.0804 0.927672C16.9992 0.846459 16.902 0.782911 16.7951 0.741015C16.6882 0.69912 16.5737 0.679782 16.459 0.684215C16.3442 0.688648 16.2316 0.716756 16.1282 0.766775C16.0248 0.816795 15.9329 0.887645 15.8582 0.97488L13.1165 3.70821V2.38321C13.1165 2.1622 13.0287 1.95024 12.8724 1.79396C12.7161 1.63768 12.5042 1.54988 12.2832 1.54988C12.0622 1.54988 11.8502 1.63768 11.6939 1.79396C11.5376 1.95024 11.4498 2.1622 11.4498 2.38321V5.71655C11.4489 5.82757 11.4687 5.93779 11.5082 6.04155C11.5491 6.14391 11.61 6.23714 11.6872 6.31581C11.7645 6.39449 11.8566 6.45705 11.9582 6.49988ZM15.1998 9.83321C15.0165 9.83321 14.8248 9.77488 14.6415 9.73321C14.2702 9.6514 13.9054 9.54278 13.5498 9.40821C13.1632 9.26757 12.7383 9.27488 12.3568 9.42872C11.9752 9.58256 11.6641 9.87208 11.4832 10.2415L11.2998 10.6165C10.4882 10.165 9.74233 9.60424 9.08317 8.94988C8.42881 8.29073 7.86803 7.54488 7.41651 6.73321L7.76651 6.49988C8.13598 6.31898 8.42549 6.00782 8.57934 5.62629C8.73318 5.24476 8.74048 4.81981 8.59984 4.43321C8.46753 4.0769 8.35895 3.71221 8.27484 3.34155C8.23317 3.15821 8.19984 2.96655 8.17484 2.77488C8.07364 2.1879 7.76619 1.65633 7.30786 1.27591C6.84952 0.895494 6.27042 0.691221 5.67484 0.69988H3.17484C2.8157 0.696508 2.46005 0.770558 2.1321 0.916989C1.80415 1.06342 1.5116 1.27879 1.27437 1.54845C1.03713 1.8181 0.860785 2.13571 0.75733 2.47964C0.653874 2.82358 0.625739 3.18576 0.67484 3.54155C1.11879 7.0327 2.7132 10.2764 5.20622 12.7604C7.69924 15.2444 10.9488 16.827 14.4415 17.2582H14.7582C15.3727 17.2591 15.966 17.0337 16.4248 16.6249C16.6885 16.3891 16.8991 16.1 17.0427 15.7768C17.1864 15.4536 17.2598 15.1036 17.2582 14.7499V12.2499C17.248 11.671 17.0372 11.1137 16.6618 10.6729C16.2864 10.2322 15.7697 9.9354 15.1998 9.83321ZM15.6165 14.8332C15.6164 14.9515 15.591 15.0685 15.5422 15.1762C15.4933 15.284 15.4221 15.3801 15.3332 15.4582C15.2401 15.5386 15.1312 15.5987 15.0135 15.6345C14.8958 15.6704 14.772 15.6813 14.6498 15.6665C11.5289 15.2664 8.63004 13.8386 6.41044 11.6085C4.19084 9.37829 2.77685 6.47266 2.39151 3.34988C2.37824 3.22781 2.38987 3.10432 2.42567 2.98687C2.46148 2.86942 2.52073 2.76045 2.59984 2.66655C2.67793 2.57766 2.77406 2.50641 2.88182 2.45756C2.98959 2.40871 3.10652 2.38336 3.22484 2.38321H5.72484C5.91863 2.3789 6.10786 2.44228 6.25996 2.56244C6.41206 2.6826 6.51752 2.85202 6.55817 3.04155C6.59151 3.26932 6.63317 3.49432 6.68317 3.71655C6.77944 4.15583 6.90756 4.58753 7.06651 5.00821L5.89984 5.54988C5.80009 5.59565 5.71036 5.66067 5.6358 5.74121C5.56125 5.82175 5.50334 5.91623 5.4654 6.01921C5.42746 6.12219 5.41023 6.23166 5.41471 6.34132C5.41919 6.45097 5.44529 6.55867 5.49151 6.65821C6.69084 9.22718 8.75588 11.2922 11.3248 12.4915C11.5277 12.5749 11.7553 12.5749 11.9582 12.4915C12.0621 12.4544 12.1576 12.3969 12.2392 12.3225C12.3207 12.2481 12.3866 12.1583 12.4332 12.0582L12.9498 10.8915C13.3806 11.0456 13.8203 11.1736 14.2665 11.2749C14.4887 11.3249 14.7137 11.3665 14.9415 11.3999C15.131 11.4405 15.3005 11.546 15.4206 11.6981C15.5408 11.8502 15.6042 12.0394 15.5998 12.2332L15.6165 14.8332Z" fill="#2CB3A5"/>
</svg>
