<svg width="21" height="23" viewBox="0 0 21 23" fill="none" xmlns="http://www.w3.org/2000/svg">
<path d="M10.5 18.5C10.6978 18.5 10.8911 18.4414 11.0556 18.3315C11.22 18.2216 11.3482 18.0654 11.4239 17.8827C11.4996 17.7 11.5194 17.4989 11.4808 17.3049C11.4422 17.1109 11.347 16.9327 11.2071 16.7929C11.0673 16.653 10.8891 16.5578 10.6951 16.5192C10.5011 16.4806 10.3 16.5004 10.1173 16.5761C9.93459 16.6518 9.77841 16.78 9.66853 16.9444C9.55865 17.1089 9.5 17.3022 9.5 17.5C9.5 17.7652 9.60536 18.0196 9.79289 18.2071C9.98043 18.3946 10.2348 18.5 10.5 18.5ZM15.5 18.5C15.6978 18.5 15.8911 18.4414 16.0556 18.3315C16.22 18.2216 16.3482 18.0654 16.4239 17.8827C16.4996 17.7 16.5194 17.4989 16.4808 17.3049C16.4422 17.1109 16.347 16.9327 16.2071 16.7929C16.0673 16.653 15.8891 16.5578 15.6951 16.5192C15.5011 16.4806 15.3 16.5004 15.1173 16.5761C14.9346 16.6518 14.7784 16.78 14.6685 16.9444C14.5586 17.1089 14.5 17.3022 14.5 17.5C14.5 17.7652 14.6054 18.0196 14.7929 18.2071C14.9804 18.3946 15.2348 18.5 15.5 18.5ZM15.5 14.5C15.6978 14.5 15.8911 14.4414 16.0556 14.3315C16.22 14.2216 16.3482 14.0654 16.4239 13.8827C16.4996 13.7 16.5194 13.4989 16.4808 13.3049C16.4422 13.1109 16.347 12.9327 16.2071 12.7929C16.0673 12.653 15.8891 12.5578 15.6951 12.5192C15.5011 12.4806 15.3 12.5004 15.1173 12.5761C14.9346 12.6518 14.7784 12.78 14.6685 12.9444C14.5586 13.1089 14.5 13.3022 14.5 13.5C14.5 13.7652 14.6054 14.0196 14.7929 14.2071C14.9804 14.3946 15.2348 14.5 15.5 14.5ZM10.5 14.5C10.6978 14.5 10.8911 14.4414 11.0556 14.3315C11.22 14.2216 11.3482 14.0654 11.4239 13.8827C11.4996 13.7 11.5194 13.4989 11.4808 13.3049C11.4422 13.1109 11.347 12.9327 11.2071 12.7929C11.0673 12.653 10.8891 12.5578 10.6951 12.5192C10.5011 12.4806 10.3 12.5004 10.1173 12.5761C9.93459 12.6518 9.77841 12.78 9.66853 12.9444C9.55865 13.1089 9.5 13.3022 9.5 13.5C9.5 13.7652 9.60536 14.0196 9.79289 14.2071C9.98043 14.3946 10.2348 14.5 10.5 14.5ZM17.5 2.5H16.5V1.5C16.5 1.23478 16.3946 0.98043 16.2071 0.792893C16.0196 0.605357 15.7652 0.5 15.5 0.5C15.2348 0.5 14.9804 0.605357 14.7929 0.792893C14.6054 0.98043 14.5 1.23478 14.5 1.5V2.5H6.5V1.5C6.5 1.23478 6.39464 0.98043 6.20711 0.792893C6.01957 0.605357 5.76522 0.5 5.5 0.5C5.23478 0.5 4.98043 0.605357 4.79289 0.792893C4.60536 0.98043 4.5 1.23478 4.5 1.5V2.5H3.5C2.70435 2.5 1.94129 2.81607 1.37868 3.37868C0.816071 3.94129 0.5 4.70435 0.5 5.5V19.5C0.5 20.2956 0.816071 21.0587 1.37868 21.6213C1.94129 22.1839 2.70435 22.5 3.5 22.5H17.5C18.2956 22.5 19.0587 22.1839 19.6213 21.6213C20.1839 21.0587 20.5 20.2956 20.5 19.5V5.5C20.5 4.70435 20.1839 3.94129 19.6213 3.37868C19.0587 2.81607 18.2956 2.5 17.5 2.5ZM18.5 19.5C18.5 19.7652 18.3946 20.0196 18.2071 20.2071C18.0196 20.3946 17.7652 20.5 17.5 20.5H3.5C3.23478 20.5 2.98043 20.3946 2.79289 20.2071C2.60536 20.0196 2.5 19.7652 2.5 19.5V10.5H18.5V19.5ZM18.5 8.5H2.5V5.5C2.5 5.23478 2.60536 4.98043 2.79289 4.79289C2.98043 4.60536 3.23478 4.5 3.5 4.5H4.5V5.5C4.5 5.76522 4.60536 6.01957 4.79289 6.20711C4.98043 6.39464 5.23478 6.5 5.5 6.5C5.76522 6.5 6.01957 6.39464 6.20711 6.20711C6.39464 6.01957 6.5 5.76522 6.5 5.5V4.5H14.5V5.5C14.5 5.76522 14.6054 6.01957 14.7929 6.20711C14.9804 6.39464 15.2348 6.5 15.5 6.5C15.7652 6.5 16.0196 6.39464 16.2071 6.20711C16.3946 6.01957 16.5 5.76522 16.5 5.5V4.5H17.5C17.7652 4.5 18.0196 4.60536 18.2071 4.79289C18.3946 4.98043 18.5 5.23478 18.5 5.5V8.5ZM5.5 14.5C5.69778 14.5 5.89112 14.4414 6.05557 14.3315C6.22002 14.2216 6.34819 14.0654 6.42388 13.8827C6.49957 13.7 6.51937 13.4989 6.48079 13.3049C6.4422 13.1109 6.34696 12.9327 6.20711 12.7929C6.06725 12.653 5.88907 12.5578 5.69509 12.5192C5.50111 12.4806 5.30004 12.5004 5.11732 12.5761C4.93459 12.6518 4.77841 12.78 4.66853 12.9444C4.55865 13.1089 4.5 13.3022 4.5 13.5C4.5 13.7652 4.60536 14.0196 4.79289 14.2071C4.98043 14.3946 5.23478 14.5 5.5 14.5ZM5.5 18.5C5.69778 18.5 5.89112 18.4414 6.05557 18.3315C6.22002 18.2216 6.34819 18.0654 6.42388 17.8827C6.49957 17.7 6.51937 17.4989 6.48079 17.3049C6.4422 17.1109 6.34696 16.9327 6.20711 16.7929C6.06725 16.653 5.88907 16.5578 5.69509 16.5192C5.50111 16.4806 5.30004 16.5004 5.11732 16.5761C4.93459 16.6518 4.77841 16.78 4.66853 16.9444C4.55865 17.1089 4.5 17.3022 4.5 17.5C4.5 17.7652 4.60536 18.0196 4.79289 18.2071C4.98043 18.3946 5.23478 18.5 5.5 18.5Z" fill="#2C3782"/>
</svg>
