<svg width="21" height="21" viewBox="0 0 21 21" fill="none" xmlns="http://www.w3.org/2000/svg">
<path d="M17.5 10.5H10.5V3.5C10.5 2.9 10.1 2.5 9.5 2.5C4.5 2.5 0.5 6.5 0.5 11.5C0.5 16.5 4.5 20.5 9.5 20.5C14.5 20.5 18.5 16.5 18.5 11.5C18.5 10.9 18.1 10.5 17.5 10.5ZM10.5 18.4C6.7 19 3.1 16.3 2.6 12.5C2 8.7 4.7 5.1 8.5 4.6V11.5C8.5 12.1 8.9 12.5 9.5 12.5H16.4C16 15.6 13.6 18 10.5 18.4ZM13.5 0.5C12.9 0.5 12.5 0.9 12.5 1.5V7.5C12.5 8.1 12.9 8.5 13.5 8.5H19.5C20.1 8.5 20.5 8.1 20.5 7.5C20.5 3.6 17.4 0.5 13.5 0.5ZM14.5 6.5V2.6C16.5 3 18 4.5 18.4 6.5H14.5Z" fill="#2C3782"/>
</svg>
