<svg width="18" height="18" viewBox="0 0 18 18" fill="none" xmlns="http://www.w3.org/2000/svg">
<path d="M8.25 1.5C6.76664 1.5 5.3166 1.93987 4.08323 2.76398C2.84986 3.58809 1.88856 4.75943 1.32091 6.12987C0.75325 7.50032 0.604725 9.00832 0.894114 10.4632C1.1835 11.918 1.89781 13.2544 2.9467 14.3033C3.9956 15.3522 5.33197 16.0665 6.78683 16.3559C8.24168 16.6453 9.74968 16.4968 11.1201 15.9291C12.4906 15.3614 13.6619 14.4001 14.486 13.1668C15.3101 11.9334 15.75 10.4834 15.75 9C15.75 8.01509 15.556 7.03982 15.1791 6.12987C14.8022 5.21993 14.2497 4.39314 13.5533 3.6967C12.8569 3.00026 12.0301 2.44781 11.1201 2.0709C10.2102 1.69399 9.23492 1.5 8.25 1.5ZM8.25 15C7.06332 15 5.90328 14.6481 4.91658 13.9888C3.92989 13.3295 3.16085 12.3925 2.70673 11.2961C2.2526 10.1997 2.13378 8.99334 2.36529 7.82946C2.5968 6.66557 3.16825 5.59647 4.00736 4.75736C4.84648 3.91824 5.91558 3.3468 7.07946 3.11529C8.24335 2.88378 9.44975 3.0026 10.5461 3.45672C11.6425 3.91085 12.5795 4.67988 13.2388 5.66658C13.8981 6.65327 14.25 7.81331 14.25 9C14.25 10.5913 13.6179 12.1174 12.4926 13.2426C11.3674 14.3679 9.8413 15 8.25 15ZM8.25 4.5C8.05109 4.5 7.86033 4.57902 7.71967 4.71967C7.57902 4.86032 7.5 5.05109 7.5 5.25V8.565L5.925 9.4725C5.78052 9.55437 5.6673 9.68188 5.60309 9.83503C5.53888 9.98818 5.52732 10.1583 5.57021 10.3187C5.61311 10.4792 5.70804 10.6208 5.84011 10.7215C5.97219 10.8222 6.13394 10.8762 6.3 10.875C6.43139 10.8759 6.5607 10.8423 6.675 10.7775L8.625 9.6525L8.6925 9.585L8.8125 9.4875C8.84183 9.45037 8.86698 9.41013 8.8875 9.3675C8.91195 9.32724 8.93206 9.2845 8.9475 9.24C8.9679 9.19231 8.98056 9.14168 8.985 9.09L9 9V5.25C9 5.05109 8.92099 4.86032 8.78033 4.71967C8.63968 4.57902 8.44892 4.5 8.25 4.5Z" fill="#2C3782"/>
</svg>
