<svg width="20" height="16" viewBox="0 0 20 16" fill="none" xmlns="http://www.w3.org/2000/svg">
<path d="M4.99979 4.24157C5.2208 4.24157 5.43277 4.15377 5.58905 3.99749C5.74533 3.84121 5.83312 3.62925 5.83312 3.40823V2.91657L8.23312 5.31657C8.70187 5.78474 9.33729 6.0477 9.99979 6.0477C10.6623 6.0477 11.2977 5.78474 11.7665 5.31657L15.5915 1.49157C15.7467 1.33543 15.8338 1.12422 15.8338 0.904067C15.8338 0.683912 15.7467 0.472702 15.5915 0.316567C15.514 0.23846 15.4218 0.176465 15.3203 0.134157C15.2187 0.0918502 15.1098 0.0700684 14.9998 0.0700684C14.8898 0.0700684 14.7809 0.0918502 14.6793 0.134157C14.5778 0.176465 14.4856 0.23846 14.4081 0.316567L10.5915 4.13323C10.514 4.21134 10.4218 4.27334 10.3203 4.31564C10.2187 4.35795 10.1098 4.37973 9.99979 4.37973C9.88978 4.37973 9.78086 4.35795 9.67931 4.31564C9.57776 4.27334 9.48559 4.21134 9.40812 4.13323L7.00812 1.74157H7.49979C7.7208 1.74157 7.93277 1.65377 8.08905 1.49749C8.24533 1.34121 8.33312 1.12925 8.33312 0.908234C8.33312 0.68722 8.24533 0.475258 8.08905 0.318978C7.93277 0.162698 7.7208 0.0749003 7.49979 0.0749003H4.99979C4.83621 0.0750336 4.67629 0.123305 4.53996 0.213699C4.40363 0.304092 4.29692 0.43261 4.23312 0.583234C4.19114 0.686556 4.16854 0.796726 4.16646 0.908234V3.40823C4.16646 3.62925 4.25425 3.84121 4.41053 3.99749C4.56682 4.15377 4.77878 4.24157 4.99979 4.24157ZM18.2831 10.3749C15.9101 8.54366 12.9972 7.55038 9.99979 7.55038C7.00237 7.55038 4.08944 8.54366 1.71646 10.3749C1.46616 10.5767 1.26219 10.83 1.11841 11.1175C0.974623 11.4051 0.89438 11.7203 0.883124 12.0416C0.861362 12.3589 0.908149 12.6772 1.0203 12.9748C1.13246 13.2725 1.30736 13.5425 1.53312 13.7666L2.99979 15.2666C3.37457 15.6412 3.87037 15.8704 4.39857 15.9131C4.92678 15.9559 5.45297 15.8094 5.88312 15.4999L6.27479 15.2332C6.54149 15.0611 6.81995 14.908 7.10812 14.7749C7.46236 14.6185 7.74475 14.3345 7.89915 13.9793C8.05355 13.6242 8.06865 13.224 7.94146 12.8582L7.86646 12.6582C9.29329 12.2917 10.7896 12.2917 12.2165 12.6582L12.1415 12.8582C12.0143 13.224 12.0294 13.6242 12.1838 13.9793C12.3382 14.3345 12.6206 14.6185 12.9748 14.7749C13.263 14.908 13.5414 15.0611 13.8081 15.2332L14.1998 15.4999C14.5718 15.7729 15.0217 15.919 15.4831 15.9166C16.0825 15.9173 16.6578 15.6806 17.0831 15.2582L18.5915 13.7416C18.8027 13.512 18.9631 13.2404 19.0622 12.9446C19.1613 12.6488 19.1968 12.3354 19.1665 12.0249C19.1468 11.7025 19.0577 11.3881 18.9052 11.1033C18.7528 10.8185 18.5406 10.57 18.2831 10.3749ZM17.3331 12.5749L15.8331 14.0832C15.742 14.1782 15.6205 14.2385 15.4898 14.2537C15.359 14.2689 15.227 14.2381 15.1165 14.1666C14.9581 14.0499 14.7998 13.9416 14.6248 13.8332C14.3313 13.6477 14.0281 13.478 13.7165 13.3249L14.0498 12.4166C14.1248 12.2088 14.1143 11.9798 14.0206 11.7797C13.9268 11.5797 13.7575 11.4251 13.5498 11.3499C11.2622 10.5168 8.75408 10.5168 6.46646 11.3499C6.25876 11.4251 6.08942 11.5797 5.99567 11.7797C5.90191 11.9798 5.8914 12.2088 5.96646 12.4166L6.29979 13.3332C5.98388 13.4802 5.6777 13.6472 5.38312 13.8332L4.89979 14.1666C4.78898 14.2461 4.65258 14.2816 4.51707 14.2662C4.38156 14.2508 4.25661 14.1856 4.16646 14.0832L2.66646 12.5749C2.61241 12.5217 2.56975 12.4581 2.5411 12.3879C2.51244 12.3177 2.49839 12.2424 2.49979 12.1666C2.50671 12.081 2.53096 11.9977 2.57108 11.9218C2.61119 11.8458 2.66632 11.7789 2.73312 11.7249C4.81584 10.1207 7.37087 9.25076 9.99979 9.25076C12.6287 9.25076 15.1837 10.1207 17.2665 11.7249C17.3333 11.7789 17.3884 11.8458 17.4285 11.9218C17.4686 11.9977 17.4929 12.081 17.4998 12.1666C17.5012 12.2424 17.4871 12.3177 17.4585 12.3879C17.4298 12.4581 17.3872 12.5217 17.3331 12.5749Z" fill="#F27E7C"/>
</svg>
