<svg width="14" height="14" viewBox="0 0 14 14" fill="none" xmlns="http://www.w3.org/2000/svg">
<mask id="mask0_794_6938" style="mask-type:alpha" maskUnits="userSpaceOnUse" x="0" y="0" width="14" height="14">
<circle cx="7" cy="7" r="7" fill="#FFF9D9"/>
</mask>
<g mask="url(#mask0_794_6938)">
<path d="M9.8 11.9833C8.98692 11.8478 8.53317 11.6681 8.28017 11.478L6.5 14H12C12 14 12 12.35 9.8 11.9833ZM3.2 11.9833C4.01308 11.8478 4.46683 11.6681 4.71983 11.478L6.5 14H1C1 14 1 12.35 3.2 11.9833Z" fill="#78D1F4"/>
<path d="M9.06693 5.93333V5.56667C9.06693 3.66 7.71576 3 6.50026 3C5.28476 3 3.93359 3.64478 3.93359 5.55145V5.93333C6.13359 5.93333 6.13359 4.46667 7.60026 4.46667C8.96829 4.46667 9.06693 5.93333 9.06693 5.93333Z" fill="#915C53"/>
<path d="M9.06712 6.29989V5.93322C9.06712 5.93322 8.96794 4.46655 7.60046 4.46655C7.54839 4.46655 7.49834 4.46894 7.44939 4.47242C7.43106 4.4737 7.41456 4.4759 7.39714 4.47755C7.34432 4.48271 7.29177 4.4903 7.23966 4.50029C7.22829 4.5023 7.21729 4.50487 7.20629 4.50725C6.11326 4.74265 5.91654 5.93322 3.93379 5.93322V6.29989C3.38379 6.29989 3.38379 6.83779 3.38379 7.20335C3.38379 7.93779 3.60526 8.46835 4.15984 8.47514C4.30872 9.05152 4.6107 9.57692 5.03379 9.9957V10.6999C5.03379 10.9153 5.08109 11.2074 4.72029 11.478L6.50046 13.9999L8.28081 11.478C7.92037 11.2074 7.96712 10.9153 7.96712 10.6999V9.9957C8.39022 9.57692 8.69219 9.05152 8.84107 8.47514C9.3962 8.46835 9.61712 7.93779 9.61712 7.20335C9.61712 6.83779 9.61712 6.29989 9.06712 6.29989Z" fill="#FFD9D9"/>
<path opacity="0.15" d="M6.50026 3C5.28586 3 3.93359 3.64478 3.93359 5.55145V5.93333C5.41126 5.93333 5.89673 5.27223 6.50026 4.83755V3Z" fill="#000064"/>
<path opacity="0.15" d="M6.5 10.5459V4.83813C5.89665 5.27245 5.41082 5.93337 3.93333 5.93337V6.30003C3.38333 6.30003 3.38333 6.83793 3.38333 7.2035C3.38333 7.93793 3.6048 8.4685 4.15938 8.47528C4.30827 9.05167 4.61024 9.57707 5.03333 9.99585V10.7C5.03333 10.7499 5.03553 10.8045 5.03498 10.8614C5.03978 10.9826 5.0133 11.103 4.95811 11.211C4.90292 11.319 4.82086 11.411 4.71983 11.4781C4.46702 11.6682 4.01345 11.8479 3.2 11.9834C1 12.35 1 14 1 14H3.96267L7.96667 9.99585C7.56213 10.3534 7.03992 10.5493 6.5 10.5459Z" fill="#000064"/>
</g>
</svg>
