<svg width="18" height="18" viewBox="0 0 18 18" fill="none" xmlns="http://www.w3.org/2000/svg">
<path d="M11.6625 6.74979C11.7558 6.78535 11.855 6.80316 11.955 6.80229H14.955C15.1539 6.80229 15.3446 6.72328 15.4853 6.58262C15.6259 6.44197 15.705 6.25121 15.705 6.05229C15.705 5.85338 15.6259 5.66262 15.4853 5.52196C15.3446 5.38131 15.1539 5.30229 14.955 5.30229H13.7625L16.23 2.83479C16.3085 2.76756 16.3722 2.68482 16.4172 2.59177C16.4623 2.49872 16.4876 2.39737 16.4916 2.29408C16.4955 2.1908 16.4781 2.0878 16.4404 1.99155C16.4027 1.89531 16.3455 1.8079 16.2724 1.73481C16.1993 1.66172 16.1119 1.60452 16.0157 1.56682C15.9195 1.52911 15.8165 1.51171 15.7132 1.5157C15.6099 1.51969 15.5085 1.54498 15.4155 1.59C15.3224 1.63502 15.2397 1.69878 15.1725 1.77729L12.705 4.23729V3.04479C12.705 2.84588 12.6259 2.65512 12.4853 2.51446C12.3446 2.37381 12.1539 2.29479 11.955 2.29479C11.756 2.29479 11.5653 2.37381 11.4246 2.51446C11.284 2.65512 11.205 2.84588 11.205 3.04479V6.0448C11.2041 6.14471 11.2219 6.24391 11.2575 6.33729C11.2943 6.42942 11.3491 6.51332 11.4186 6.58413C11.4881 6.65494 11.571 6.71125 11.6625 6.74979ZM14.58 9.74979C14.415 9.74979 14.2425 9.69729 14.0775 9.65979C13.7433 9.58616 13.415 9.48841 13.095 9.36729C12.747 9.24072 12.3646 9.24729 12.0212 9.38575C11.6778 9.52421 11.3978 9.78477 11.235 10.1173L11.07 10.4548C10.3395 10.0484 9.66819 9.54372 9.07495 8.95479C8.48603 8.36156 7.98132 7.69029 7.57495 6.95979L7.88995 6.74979C8.22248 6.58698 8.48304 6.30694 8.6215 5.96356C8.75996 5.62018 8.76653 5.23773 8.63995 4.88979C8.52087 4.56911 8.42316 4.24089 8.34745 3.90729C8.30995 3.74229 8.27995 3.56979 8.25745 3.39729C8.16638 2.86901 7.88967 2.3906 7.47717 2.04822C7.06467 1.70585 6.54348 1.522 6.00745 1.52979H3.75745C3.43423 1.52676 3.11414 1.5934 2.81899 1.72519C2.52383 1.85698 2.26054 2.05082 2.04703 2.29351C1.83352 2.5362 1.6748 2.82204 1.58169 3.13158C1.48858 3.44112 1.46326 3.76709 1.50745 4.08729C1.90701 7.22933 3.34198 10.1487 5.58569 12.3843C7.82941 14.6198 10.754 16.0442 13.8975 16.4323H14.1825C14.7355 16.4331 15.2695 16.2302 15.6825 15.8623C15.9197 15.6501 16.1093 15.3899 16.2386 15.099C16.3678 14.8081 16.4339 14.4931 16.4325 14.1748V11.9248C16.4233 11.4038 16.2336 10.9022 15.8957 10.5055C15.5579 10.1089 15.0928 9.84176 14.58 9.74979ZM14.955 14.2498C14.9548 14.3563 14.932 14.4615 14.888 14.5585C14.8441 14.6555 14.78 14.742 14.7 14.8123C14.6162 14.8846 14.5182 14.9387 14.4123 14.971C14.3063 15.0033 14.1949 15.0131 14.085 14.9998C11.2761 14.6396 8.66713 13.3547 6.66949 11.3475C4.67185 9.34037 3.39926 6.7253 3.05245 3.91479C3.04052 3.80493 3.05098 3.69379 3.0832 3.58809C3.11543 3.48238 3.16876 3.38431 3.23995 3.29979C3.31024 3.21979 3.39675 3.15568 3.49374 3.11171C3.59073 3.06774 3.69597 3.04493 3.80245 3.04479H6.05245C6.22686 3.04091 6.39717 3.09795 6.53406 3.2061C6.67095 3.31424 6.76586 3.46672 6.80245 3.63729C6.83245 3.84229 6.86995 4.04479 6.91495 4.24479C7.00159 4.64015 7.1169 5.02868 7.25995 5.40729L6.20995 5.89479C6.12018 5.93599 6.03942 5.9945 5.97232 6.06699C5.90522 6.13948 5.8531 6.22451 5.81896 6.31719C5.78481 6.40988 5.76931 6.50839 5.77334 6.60709C5.77737 6.70578 5.80086 6.8027 5.84245 6.89229C6.92185 9.20436 8.78039 11.0629 11.0925 12.1423C11.2751 12.2173 11.4799 12.2173 11.6625 12.1423C11.756 12.1088 11.8419 12.0571 11.9153 11.9902C11.9887 11.9232 12.0481 11.8424 12.09 11.7523L12.555 10.7023C12.9427 10.841 13.3384 10.9562 13.74 11.0473C13.94 11.0923 14.1425 11.1298 14.3475 11.1598C14.518 11.1964 14.6705 11.2913 14.7787 11.4282C14.8868 11.5651 14.9438 11.7354 14.94 11.9098L14.955 14.2498Z" fill="#2C3782"/>
</svg>
