<svg width="18" height="20" viewBox="0 0 18 20" fill="none" xmlns="http://www.w3.org/2000/svg">
<path d="M7.75046 3.10831C7.89835 2.93014 8.08174 2.78474 8.28895 2.68138C8.49615 2.57802 8.72262 2.51897 8.95391 2.50799C9.1852 2.49701 9.41624 2.53435 9.6323 2.61763C9.84836 2.7009 10.0447 2.82828 10.2088 2.99165C10.5096 3.30816 10.6742 3.73006 10.6671 4.16665V7.00831C10.6671 7.22933 10.7549 7.44129 10.9112 7.59757C11.0675 7.75385 11.2795 7.84165 11.5005 7.84165C11.7215 7.84165 11.9334 7.75385 12.0897 7.59757C12.246 7.44129 12.3338 7.22933 12.3338 7.00831V4.16665C12.3147 3.49777 12.0948 2.8501 11.7026 2.30793C11.3104 1.76575 10.7642 1.35416 10.1348 1.12671C9.50553 0.899262 8.82234 0.86648 8.17414 1.03263C7.52594 1.19878 6.94276 1.55618 6.50046 2.05831C6.40346 2.13505 6.32476 2.23241 6.27006 2.34333C6.21536 2.45426 6.18604 2.57597 6.18422 2.69963C6.1824 2.8233 6.20813 2.94582 6.25955 3.05831C6.31096 3.17079 6.38677 3.27042 6.48147 3.34997C6.57617 3.42952 6.68739 3.487 6.80707 3.51822C6.92674 3.54945 7.05186 3.55364 7.17336 3.53051C7.29485 3.50737 7.40968 3.45748 7.5095 3.38446C7.60931 3.31143 7.69163 3.2171 7.75046 3.10831ZM14.6005 11.0583H14.7671C14.9633 11.0619 15.1544 10.9961 15.3068 10.8727C15.4592 10.7492 15.5632 10.5759 15.6005 10.3833C15.6602 9.98069 15.6825 9.57339 15.6671 9.16665C15.6671 8.94563 15.5793 8.73367 15.4231 8.57739C15.2668 8.42111 15.0548 8.33331 14.8338 8.33331C14.6128 8.33331 14.4008 8.42111 14.2445 8.57739C14.0883 8.73367 14.0005 8.94563 14.0005 9.16665C14.0005 9.47449 13.9698 9.78158 13.9088 10.0833C13.8885 10.1929 13.8905 10.3055 13.9145 10.4143C13.9385 10.5232 13.9841 10.6261 14.0486 10.717C14.1131 10.8079 14.1951 10.885 14.2899 10.9436C14.3847 11.0022 14.4903 11.0412 14.6005 11.0583ZM17.1005 16.1083L2.10047 1.10832C2.023 1.03021 1.93083 0.968213 1.82928 0.925905C1.72773 0.883598 1.61881 0.861816 1.5088 0.861816C1.39879 0.861816 1.28987 0.883598 1.18832 0.925905C1.08677 0.968213 0.994601 1.03021 0.917132 1.10832C0.761923 1.26445 0.674805 1.47566 0.674805 1.69581C0.674805 1.91597 0.761923 2.12718 0.917132 2.28331L5.66713 7.06665V9.16665C5.66773 9.75148 5.82219 10.3259 6.11499 10.8321C6.4078 11.3384 6.82865 11.7587 7.33528 12.0508C7.84191 12.343 8.41649 12.4967 9.00132 12.4966C9.58615 12.4964 10.1607 12.3424 10.6671 12.05L11.8838 13.2666C11.1341 13.7958 10.2533 14.1084 9.33784 14.1704C8.42234 14.2323 7.50746 14.0411 6.69338 13.6177C5.87931 13.1943 5.19744 12.5551 4.72246 11.77C4.24747 10.9849 3.99769 10.0842 4.00046 9.16665C4.00046 8.94563 3.91267 8.73367 3.75639 8.57739C3.60011 8.42111 3.38815 8.33331 3.16713 8.33331C2.94612 8.33331 2.73416 8.42111 2.57788 8.57739C2.4216 8.73367 2.3338 8.94563 2.3338 9.16665C2.33527 10.7894 2.92857 12.3559 4.00246 13.5725C5.07636 14.789 6.55712 15.5721 8.16713 15.775V17.5H6.50046C6.27945 17.5 6.06749 17.5878 5.91121 17.7441C5.75493 17.9003 5.66713 18.1123 5.66713 18.3333C5.66713 18.5543 5.75493 18.7663 5.91121 18.9226C6.06749 19.0788 6.27945 19.1666 6.50046 19.1666H11.5005C11.7215 19.1666 11.9334 19.0788 12.0897 18.9226C12.246 18.7663 12.3338 18.5543 12.3338 18.3333C12.3338 18.1123 12.246 17.9003 12.0897 17.7441C11.9334 17.5878 11.7215 17.5 11.5005 17.5H9.8338V15.775C11.0028 15.6295 12.1111 15.1718 13.0421 14.45L15.8755 17.2833C16.0313 17.4402 16.243 17.5288 16.4642 17.5296C16.6853 17.5304 16.8977 17.4433 17.0546 17.2875C17.2116 17.1317 17.3001 16.9199 17.3009 16.6988C17.3017 16.4776 17.2146 16.2652 17.0588 16.1083H17.1005ZM9.00047 10.8333C8.55844 10.8333 8.13451 10.6577 7.82195 10.3452C7.50939 10.0326 7.3338 9.60867 7.3338 9.16665V8.73331L9.37546 10.7833C9.25318 10.8163 9.12711 10.8331 9.00047 10.8333Z" fill="white"/>
</svg>
