<svg width="18" height="18" viewBox="0 0 18 18" fill="none" xmlns="http://www.w3.org/2000/svg">
<path d="M3.16699 14H6.70033C6.81 14.0007 6.91872 13.9796 7.02025 13.9382C7.12178 13.8967 7.21413 13.8356 7.29199 13.7584L13.0587 7.98336L15.4253 5.6667C15.5034 5.58923 15.5654 5.49706 15.6077 5.39551C15.65 5.29396 15.6718 5.18504 15.6718 5.07503C15.6718 4.96502 15.65 4.8561 15.6077 4.75455C15.5654 4.653 15.5034 4.56083 15.4253 4.48336L11.892 0.908364C11.8145 0.830257 11.7224 0.768262 11.6208 0.725954C11.5193 0.683647 11.4103 0.661865 11.3003 0.661865C11.1903 0.661865 11.0814 0.683647 10.9798 0.725954C10.8783 0.768262 10.7861 0.830257 10.7087 0.908364L8.35866 3.2667L2.57533 9.0417C2.49809 9.11956 2.43699 9.21191 2.39552 9.31344C2.35405 9.41497 2.33302 9.52369 2.33366 9.63336V13.1667C2.33366 13.3877 2.42146 13.5997 2.57774 13.756C2.73402 13.9122 2.94598 14 3.16699 14ZM11.3003 2.67503L13.6587 5.03336L12.4753 6.2167L10.117 3.85836L11.3003 2.67503ZM4.00033 9.97503L8.94199 5.03336L11.3003 7.3917L6.35866 12.3334H4.00033V9.97503ZM16.5003 15.6667H1.50033C1.27931 15.6667 1.06735 15.7545 0.91107 15.9108C0.75479 16.0671 0.666992 16.279 0.666992 16.5C0.666992 16.721 0.75479 16.933 0.91107 17.0893C1.06735 17.2456 1.27931 17.3334 1.50033 17.3334H16.5003C16.7213 17.3334 16.9333 17.2456 17.0896 17.0893C17.2459 16.933 17.3337 16.721 17.3337 16.5C17.3337 16.279 17.2459 16.0671 17.0896 15.9108C16.9333 15.7545 16.7213 15.6667 16.5003 15.6667Z" fill="#7B61FF"/>
</svg>
