<svg width="25" height="24" viewBox="0 0 25 24" fill="none" xmlns="http://www.w3.org/2000/svg">
<path d="M19.9396 13C19.7196 13 19.4896 12.93 19.2696 12.88C18.8241 12.7818 18.3863 12.6515 17.9596 12.49C17.4957 12.3212 16.9858 12.33 16.5279 12.5146C16.0701 12.6992 15.6967 13.0466 15.4796 13.49L15.2596 13.94C14.2856 13.3982 13.3906 12.7252 12.5996 11.94C11.8144 11.149 11.1414 10.254 10.5996 9.27999L11.0196 8.99999C11.463 8.78291 11.8104 8.40952 11.995 7.95168C12.1796 7.49384 12.1884 6.9839 12.0196 6.51999C11.8608 6.09241 11.7305 5.65479 11.6296 5.20999C11.5796 4.98999 11.5396 4.75999 11.5096 4.52999C11.3882 3.82561 11.0192 3.18773 10.4692 2.73123C9.91923 2.27473 9.22431 2.0296 8.50961 2.03999H5.50961C5.07864 2.03594 4.65186 2.1248 4.25832 2.30052C3.86478 2.47624 3.51372 2.73469 3.22904 3.05827C2.94436 3.38186 2.73275 3.76298 2.6086 4.1757C2.48445 4.58842 2.45069 5.02305 2.50961 5.44999C3.04235 9.63937 4.95564 13.5319 7.94726 16.5126C10.9389 19.4934 14.8383 21.3925 19.0296 21.91H19.4096C20.147 21.9111 20.859 21.6405 21.4096 21.15C21.726 20.867 21.9787 20.5202 22.1511 20.1323C22.3235 19.7444 22.4116 19.3244 22.4096 18.9V15.9C22.3974 15.2054 22.1444 14.5365 21.694 14.0077C21.2435 13.4788 20.6234 13.1226 19.9396 13V13ZM20.4396 19C20.4394 19.142 20.409 19.2823 20.3504 19.4116C20.2918 19.5409 20.2063 19.6563 20.0996 19.75C19.9879 19.8465 19.8572 19.9185 19.716 19.9616C19.5748 20.0046 19.4262 20.0177 19.2796 20C15.5345 19.5198 12.0558 17.8065 9.39233 15.1303C6.72881 12.4541 5.03202 8.96733 4.56961 5.21999C4.5537 5.07351 4.56765 4.92532 4.61061 4.78438C4.65358 4.64344 4.72468 4.51268 4.81961 4.39999C4.91332 4.29332 5.02867 4.20783 5.15799 4.14921C5.28731 4.09058 5.42763 4.06017 5.56961 4.05999H8.56961C8.80216 4.05482 9.02924 4.13087 9.21176 4.27506C9.39428 4.41925 9.52082 4.62256 9.56961 4.84999C9.60961 5.12332 9.65961 5.39332 9.71961 5.65999C9.83513 6.18713 9.98887 6.70517 10.1796 7.20999L8.77961 7.85999C8.65991 7.91491 8.55223 7.99294 8.46277 8.08959C8.37331 8.18624 8.30381 8.2996 8.25828 8.42318C8.21275 8.54677 8.19208 8.67812 8.19746 8.80971C8.20284 8.9413 8.23415 9.07054 8.28961 9.18999C9.72881 12.2727 12.2069 14.7508 15.2896 16.19C15.5331 16.29 15.8062 16.29 16.0496 16.19C16.1743 16.1454 16.2889 16.0764 16.3868 15.9872C16.4846 15.8979 16.5638 15.7901 16.6196 15.67L17.2396 14.27C17.7566 14.4549 18.2842 14.6085 18.8196 14.73C19.0863 14.79 19.3563 14.84 19.6296 14.88C19.857 14.9288 20.0604 15.0553 20.2045 15.2378C20.3487 15.4204 20.4248 15.6474 20.4196 15.88L20.4396 19Z" fill="#2C3782"/>
</svg>
