<svg width="18" height="14" viewBox="0 0 18 14" fill="none" xmlns="http://www.w3.org/2000/svg">
<path d="M9.35866 0.416653C9.22333 0.358104 9.07489 0.336513 8.92848 0.354081C8.78208 0.371649 8.64296 0.427748 8.52533 0.516653L4.54199 3.66665H1.50033C1.27931 3.66665 1.06735 3.75445 0.91107 3.91073C0.75479 4.06701 0.666992 4.27897 0.666992 4.49999V9.49999C0.666992 9.721 0.75479 9.93296 0.91107 10.0892C1.06735 10.2455 1.27931 10.3333 1.50033 10.3333H4.54199L8.48366 13.4833C8.63028 13.601 8.81236 13.6656 9.00033 13.6667C9.1248 13.6687 9.24787 13.6401 9.35866 13.5833C9.50047 13.5158 9.6203 13.4095 9.70435 13.2768C9.78839 13.1441 9.83321 12.9904 9.83366 12.8333V1.16665C9.83321 1.00958 9.78839 0.855833 9.70435 0.723135C9.6203 0.590437 9.50047 0.484193 9.35866 0.416653V0.416653ZM8.16699 11.1L5.35033 8.84999C5.20371 8.73235 5.02163 8.66774 4.83366 8.66665H2.33366V5.33332H4.83366C5.02163 5.33223 5.20371 5.26762 5.35033 5.14999L8.16699 2.89999V11.1ZM15.3837 2.28332C15.2267 2.1264 15.0139 2.03824 14.792 2.03824C14.5701 2.03824 14.3572 2.1264 14.2003 2.28332C14.0434 2.44024 13.9552 2.65307 13.9552 2.87499C13.9552 3.0969 14.0434 3.30973 14.2003 3.46665C14.691 3.9566 15.0745 4.54326 15.3263 5.18936C15.5781 5.83546 15.6927 6.52687 15.6629 7.21966C15.6331 7.91246 15.4596 8.59148 15.1533 9.21359C14.847 9.83569 14.4146 10.3873 13.8837 10.8333C13.7547 10.9436 13.6625 11.0906 13.6193 11.2546C13.5761 11.4187 13.5841 11.592 13.6421 11.7515C13.7 11.9109 13.8053 12.0489 13.9438 12.1469C14.0822 12.2449 14.2473 12.2983 14.417 12.3C14.6117 12.3004 14.8004 12.2326 14.9503 12.1083C15.6594 11.5144 16.2372 10.7794 16.6469 9.9501C17.0565 9.12079 17.2892 8.2153 17.3299 7.29122C17.3707 6.36713 17.2187 5.44468 16.8836 4.58252C16.5485 3.72036 16.0377 2.93736 15.3837 2.28332V2.28332ZM13.0253 4.64165C12.9476 4.56395 12.8554 4.50232 12.7539 4.46027C12.6523 4.41822 12.5435 4.39658 12.4337 4.39658C12.3238 4.39658 12.215 4.41822 12.1135 4.46027C12.0119 4.50232 11.9197 4.56395 11.842 4.64165C11.7643 4.71935 11.7027 4.81159 11.6606 4.91311C11.6186 5.01463 11.5969 5.12344 11.5969 5.23332C11.5969 5.3432 11.6186 5.45201 11.6606 5.55353C11.7027 5.65505 11.7643 5.74729 11.842 5.82499C12.155 6.13611 12.3318 6.55867 12.3337 6.99999C12.3339 7.24278 12.281 7.48268 12.1788 7.70291C12.0766 7.92314 11.9275 8.11839 11.742 8.27499C11.6576 8.34494 11.5879 8.43086 11.5367 8.52782C11.4856 8.62477 11.4541 8.73086 11.444 8.84001C11.434 8.94916 11.4456 9.05922 11.4781 9.16389C11.5106 9.26856 11.5635 9.36578 11.6337 9.44999C11.7042 9.53376 11.7906 9.60281 11.8878 9.65318C11.9851 9.70356 12.0913 9.73426 12.2004 9.74355C12.3096 9.75284 12.4194 9.74052 12.5238 9.70731C12.6282 9.6741 12.725 9.62064 12.8087 9.54999C13.1813 9.23758 13.481 8.84744 13.6868 8.40694C13.8927 7.96643 13.9997 7.48622 14.0003 6.99999C13.9956 6.11674 13.6457 5.27036 13.0253 4.64165V4.64165Z" fill="white"/>
</svg>
