<svg width="37" height="38" viewBox="0 0 37 38" fill="none" xmlns="http://www.w3.org/2000/svg">
<path d="M29.75 31.0333C23.5 29.83 23.5 27.8667 23.5 26.6V24.5733C25.75 22.4833 27.25 19.0633 27.25 15.2V9.12C27.25 2.53333 22.625 0 18.5 0C14.375 0 9.75 2.53333 9.75 9.12V15.2C9.75 19.0633 11.25 22.4833 13.5 24.5733V26.6C13.5 27.8667 13.5 29.8933 7.25 31.0333C5.50075 31.3467 3.88096 32.1742 2.59197 33.4128C1.30299 34.6514 0.401652 36.2466 0 38H37C36.5837 36.2537 35.6777 34.6668 34.3913 33.4307C33.1048 32.1945 31.4929 31.3619 29.75 31.0333Z" fill="#D9D9D9"/>
</svg>
