<svg width="14" height="12" viewBox="0 0 14 12" fill="none" xmlns="http://www.w3.org/2000/svg">
<path d="M7.28683 0.733517C7.17857 0.686679 7.05981 0.669405 6.94269 0.68346C6.82557 0.697515 6.71427 0.742394 6.62016 0.813517L3.4335 3.33352H1.00016C0.823352 3.33352 0.653782 3.40376 0.528758 3.52878C0.403734 3.6538 0.333496 3.82337 0.333496 4.00018V8.00018C0.333496 8.17699 0.403734 8.34656 0.528758 8.47159C0.653782 8.59661 0.823352 8.66685 1.00016 8.66685H3.4335L6.58683 11.1869C6.70412 11.281 6.84979 11.3326 7.00016 11.3335C7.09974 11.3352 7.19819 11.3123 7.28683 11.2669C7.40028 11.2128 7.49614 11.1278 7.56338 11.0217C7.63061 10.9155 7.66647 10.7925 7.66683 10.6669V1.33352C7.66647 1.20786 7.63061 1.08486 7.56338 0.978703C7.49614 0.872545 7.40028 0.78755 7.28683 0.733517ZM6.3335 9.28018L4.08016 7.48018C3.96287 7.38608 3.81721 7.33439 3.66683 7.33352H1.66683V4.66685H3.66683C3.81721 4.66598 3.96287 4.61429 4.08016 4.52018L6.3335 2.72018V9.28018ZM9.0935 0.726851C9.00595 0.714594 8.91684 0.719701 8.83127 0.741881C8.7457 0.76406 8.66533 0.802877 8.59476 0.856116C8.52418 0.909355 8.46479 0.975973 8.41996 1.05217C8.37513 1.12836 8.34575 1.21264 8.3335 1.30018C8.32124 1.38773 8.32635 1.47684 8.34853 1.56241C8.37071 1.64799 8.40952 1.72835 8.46276 1.79893C8.57028 1.94145 8.73002 2.03543 8.90683 2.06018C9.85097 2.20568 10.7119 2.68427 11.3338 3.40938C11.9557 4.13448 12.2976 5.05823 12.2976 6.01352C12.2976 6.9688 11.9557 7.89255 11.3338 8.61766C10.7119 9.34277 9.85097 9.82135 8.90683 9.96685C8.73002 9.97923 8.56537 10.0613 8.44909 10.1951C8.33282 10.3289 8.27445 10.5034 8.28683 10.6802C8.29921 10.857 8.38131 11.0216 8.51509 11.1379C8.64887 11.2542 8.82335 11.3126 9.00016 11.3002H9.0935C10.3554 11.1093 11.507 10.4722 12.3392 9.50462C13.1714 8.53704 13.6291 7.3031 13.6291 6.02685C13.6291 4.7506 13.1714 3.51666 12.3392 2.54908C11.507 1.58149 10.3554 0.944416 9.0935 0.753518V0.726851ZM8.78683 7.24685C8.61002 7.27514 8.45169 7.37251 8.34667 7.51754C8.24165 7.66257 8.19854 7.84337 8.22683 8.02018C8.25512 8.19699 8.35249 8.35533 8.49752 8.46035C8.64254 8.56537 8.82335 8.60847 9.00016 8.58018C9.07251 8.57937 9.14435 8.56815 9.2135 8.54685C9.73284 8.36269 10.1824 8.02217 10.5003 7.57211C10.8182 7.12205 10.9889 6.58455 10.9889 6.03352C10.9889 5.48249 10.8182 4.94499 10.5003 4.49492C10.1824 4.04486 9.73284 3.70434 9.2135 3.52018C9.04553 3.4636 8.86196 3.47607 8.70318 3.55483C8.5444 3.6336 8.42341 3.77221 8.36683 3.94018C8.31025 4.10815 8.32271 4.29172 8.40148 4.4505C8.48024 4.60928 8.61886 4.73027 8.78683 4.78685C9.03981 4.8828 9.2576 5.05345 9.41129 5.27612C9.56499 5.49879 9.6473 5.76296 9.6473 6.03352C9.6473 6.30408 9.56499 6.56824 9.41129 6.79091C9.2576 7.01358 9.03981 7.18423 8.78683 7.28018V7.24685Z" fill="#999999"/>
</svg>
