<svg width="12" height="14" viewBox="0 0 12 14" fill="none" xmlns="http://www.w3.org/2000/svg">
<path d="M8.66667 8.3335H3.33333C3.15652 8.3335 2.98695 8.40373 2.86193 8.52876C2.7369 8.65378 2.66667 8.82335 2.66667 9.00016C2.66667 9.17697 2.7369 9.34654 2.86193 9.47157C2.98695 9.59659 3.15652 9.66683 3.33333 9.66683H8.66667C8.84348 9.66683 9.01305 9.59659 9.13807 9.47157C9.2631 9.34654 9.33333 9.17697 9.33333 9.00016C9.33333 8.82335 9.2631 8.65378 9.13807 8.52876C9.01305 8.40373 8.84348 8.3335 8.66667 8.3335ZM8.66667 5.66683H4.66667C4.48986 5.66683 4.32029 5.73707 4.19526 5.86209C4.07024 5.98712 4 6.15669 4 6.3335C4 6.51031 4.07024 6.67988 4.19526 6.8049C4.32029 6.92992 4.48986 7.00016 4.66667 7.00016H8.66667C8.84348 7.00016 9.01305 6.92992 9.13807 6.8049C9.2631 6.67988 9.33333 6.51031 9.33333 6.3335C9.33333 6.15669 9.2631 5.98712 9.13807 5.86209C9.01305 5.73707 8.84348 5.66683 8.66667 5.66683ZM11.3333 1.66683H9.33333V1.00016C9.33333 0.823352 9.2631 0.653782 9.13807 0.528758C9.01305 0.403734 8.84348 0.333496 8.66667 0.333496C8.48986 0.333496 8.32029 0.403734 8.19526 0.528758C8.07024 0.653782 8 0.823352 8 1.00016V1.66683H6.66667V1.00016C6.66667 0.823352 6.59643 0.653782 6.4714 0.528758C6.34638 0.403734 6.17681 0.333496 6 0.333496C5.82319 0.333496 5.65362 0.403734 5.5286 0.528758C5.40357 0.653782 5.33333 0.823352 5.33333 1.00016V1.66683H4V1.00016C4 0.823352 3.92976 0.653782 3.80474 0.528758C3.67971 0.403734 3.51014 0.333496 3.33333 0.333496C3.15652 0.333496 2.98695 0.403734 2.86193 0.528758C2.7369 0.653782 2.66667 0.823352 2.66667 1.00016V1.66683H0.666667C0.489856 1.66683 0.320286 1.73707 0.195262 1.86209C0.0702379 1.98712 0 2.15669 0 2.3335V11.6668C0 12.1973 0.210714 12.706 0.585787 13.081C0.960859 13.4561 1.46957 13.6668 2 13.6668H10C10.5304 13.6668 11.0391 13.4561 11.4142 13.081C11.7893 12.706 12 12.1973 12 11.6668V2.3335C12 2.15669 11.9298 1.98712 11.8047 1.86209C11.6797 1.73707 11.5101 1.66683 11.3333 1.66683ZM10.6667 11.6668C10.6667 11.8436 10.5964 12.0132 10.4714 12.1382C10.3464 12.2633 10.1768 12.3335 10 12.3335H2C1.82319 12.3335 1.65362 12.2633 1.5286 12.1382C1.40357 12.0132 1.33333 11.8436 1.33333 11.6668V3.00016H2.66667V3.66683C2.66667 3.84364 2.7369 4.01321 2.86193 4.13823C2.98695 4.26326 3.15652 4.3335 3.33333 4.3335C3.51014 4.3335 3.67971 4.26326 3.80474 4.13823C3.92976 4.01321 4 3.84364 4 3.66683V3.00016H5.33333V3.66683C5.33333 3.84364 5.40357 4.01321 5.5286 4.13823C5.65362 4.26326 5.82319 4.3335 6 4.3335C6.17681 4.3335 6.34638 4.26326 6.4714 4.13823C6.59643 4.01321 6.66667 3.84364 6.66667 3.66683V3.00016H8V3.66683C8 3.84364 8.07024 4.01321 8.19526 4.13823C8.32029 4.26326 8.48986 4.3335 8.66667 4.3335C8.84348 4.3335 9.01305 4.26326 9.13807 4.13823C9.2631 4.01321 9.33333 3.84364 9.33333 3.66683V3.00016H10.6667V11.6668Z" fill="white"/>
</svg>
