<svg width="14" height="14" viewBox="0 0 14 14" fill="currentColor" xmlns="http://www.w3.org/2000/svg">
<path d="M11.9601 7.50561C11.8134 7.50561 11.6601 7.45894 11.5134 7.42561C11.2164 7.36016 10.9245 7.27326 10.6401 7.16561C10.3308 7.0531 9.99083 7.05894 9.68561 7.18201C9.38038 7.30509 9.13146 7.5367 8.98673 7.83228L8.84007 8.13228C8.19074 7.77106 7.59406 7.32243 7.06673 6.79894C6.54325 6.27162 6.09462 5.67494 5.7334 5.02561L6.0134 4.83894C6.30898 4.69422 6.54059 4.4453 6.66366 4.14007C6.78674 3.83484 6.79258 3.49488 6.68007 3.18561C6.57422 2.90056 6.48736 2.60881 6.42007 2.31228C6.38673 2.16561 6.36007 2.01228 6.34007 1.85894C6.25911 1.38936 6.01315 0.964103 5.64648 0.659768C5.27981 0.355433 4.81653 0.192015 4.34007 0.198942H2.34007C2.05275 0.196244 1.76823 0.255484 1.50587 0.372629C1.24351 0.489774 1.00947 0.662073 0.819687 0.877797C0.629901 1.09352 0.488824 1.3476 0.406059 1.62275C0.323295 1.8979 0.300787 2.18765 0.340067 2.47228C0.695226 5.2652 1.97075 7.86019 3.96517 9.84737C5.95958 11.8345 8.55921 13.1006 11.3534 13.4456H11.6067C12.0983 13.4463 12.573 13.266 12.9401 12.9389C13.151 12.7503 13.3195 12.5191 13.4344 12.2605C13.5493 12.0019 13.608 11.7219 13.6067 11.4389V9.43894C13.5986 8.97587 13.4299 8.52998 13.1296 8.17739C12.8293 7.8248 12.4159 7.58736 11.9601 7.50561ZM12.2934 11.5056C12.2933 11.6003 12.273 11.6938 12.2339 11.78C12.1948 11.8662 12.1378 11.9431 12.0667 12.0056C11.9922 12.0699 11.9051 12.118 11.811 12.1467C11.7169 12.1754 11.6178 12.1841 11.5201 12.1723C9.02333 11.8521 6.70423 10.7099 4.92854 8.9258C3.15286 7.14167 2.02167 4.81717 1.7134 2.31894C1.70279 2.22129 1.71209 2.1225 1.74074 2.02854C1.76938 1.93458 1.81678 1.8474 1.88007 1.77228C1.94254 1.70116 2.01944 1.64417 2.10565 1.60509C2.19186 1.566 2.28541 1.54573 2.38007 1.54561H4.38007C4.5351 1.54216 4.68648 1.59286 4.80816 1.68899C4.92984 1.78512 5.01421 1.92066 5.04673 2.07228C5.0734 2.2545 5.10673 2.4345 5.14673 2.61228C5.22375 2.9637 5.32624 3.30906 5.4534 3.64561L4.52007 4.07894C4.44027 4.11556 4.36848 4.16757 4.30884 4.23201C4.2492 4.29644 4.20287 4.37202 4.17251 4.45441C4.14216 4.53679 4.12838 4.62436 4.13197 4.71209C4.13555 4.79982 4.15643 4.88597 4.1934 4.96561C5.15287 7.02078 6.8049 8.67281 8.86007 9.63228C9.02238 9.69895 9.20443 9.69895 9.36673 9.63228C9.44988 9.60254 9.52628 9.55658 9.59151 9.49707C9.65675 9.43756 9.70951 9.36568 9.74673 9.28561L10.1601 8.35228C10.5047 8.47553 10.8565 8.57793 11.2134 8.65894C11.3912 8.69894 11.5712 8.73228 11.7534 8.75894C11.905 8.79147 12.0406 8.87583 12.1367 8.99751C12.2328 9.11919 12.2835 9.27058 12.2801 9.42561L12.2934 11.5056Z" fill="#999999"/>
</svg>
